<svg width="19" height="23" viewBox="0 0 19 23" fill="none" xmlns="http://www.w3.org/2000/svg">
<path d="M15.6865 12.1201C15.6768 10.3281 16.4873 8.97559 18.1279 7.97949C17.21 6.66602 15.8232 5.94336 13.9922 5.80176C12.2588 5.66504 10.3643 6.8125 9.6709 6.8125C8.93848 6.8125 7.25879 5.85059 5.94043 5.85059C3.21582 5.89453 0.320312 8.02344 0.320312 12.3545C0.320312 13.6338 0.554687 14.9554 1.02344 16.3193C1.64844 18.1113 3.9043 22.5059 6.25781 22.4326C7.48828 22.4033 8.35742 21.5586 9.95898 21.5586C11.5117 21.5586 12.3174 22.4326 13.6895 22.4326C16.0625 22.3984 18.1035 18.4043 18.6992 16.6074C15.5156 15.1084 15.6865 12.2129 15.6865 12.1201ZM12.9229 4.10254C14.2559 2.52051 14.1338 1.08008 14.0947 0.5625C12.918 0.630859 11.5557 1.36328 10.7793 2.2666C9.9248 3.2334 9.42188 4.42969 9.5293 5.77734C10.8037 5.875 11.9658 5.2207 12.9229 4.10254Z" fill="#1D2328"/>
</svg>
