<svg width="70" height="24" viewBox="0 0 70 24" fill="none" xmlns="http://www.w3.org/2000/svg">
<path d="M5.31129 0.272636L9.91329 9.84064H8.23629L7.41729 7.96864H3.03629L2.21729 9.84064H0.592293L5.16829 0.272636H5.31129ZM4.66129 4.34164L3.62129 6.65564H6.84529L5.81829 4.35464L5.25929 3.04164H5.23329L4.66129 4.34164ZM10.1937 3.87364H11.5977V5.04364C11.7364 4.64497 11.9617 4.3243 12.2737 4.08164C12.5857 3.83897 12.941 3.71764 13.3397 3.71764C13.617 3.71764 13.8077 3.74364 13.9117 3.79564L13.7167 5.21264C13.6387 5.16064 13.4697 5.13464 13.2097 5.13464C12.8024 5.13464 12.4297 5.26464 12.0917 5.52464C11.7624 5.78464 11.5977 6.20064 11.5977 6.77264V9.84064H10.1937V3.87364ZM14.6186 3.87364H16.0746V9.84064H14.6186V3.87364ZM15.3336 2.75564C15.0649 2.75564 14.8396 2.66464 14.6576 2.48264C14.4756 2.30064 14.3846 2.0753 14.3846 1.80664C14.3846 1.56397 14.4756 1.35597 14.6576 1.18264C14.8396 1.0093 15.0649 0.922637 15.3336 0.922637C15.5936 0.922637 15.8146 1.0093 15.9966 1.18264C16.1786 1.35597 16.2696 1.56397 16.2696 1.80664C16.2696 2.0753 16.1786 2.30064 15.9966 2.48264C15.8232 2.66464 15.6022 2.75564 15.3336 2.75564ZM16.6795 3.87364H18.2785L19.5655 6.56464L19.9815 7.64364L20.3975 6.56464L21.6715 3.87364H23.2315L20.0985 9.84064H19.8255L16.6795 3.87364ZM26.3775 9.97064C25.8402 9.97064 25.3418 9.84497 24.8825 9.59364C24.4318 9.33364 24.0678 8.96964 23.7905 8.50164C23.5218 8.02497 23.3875 7.4703 23.3875 6.83764C23.3875 6.21364 23.5045 5.66764 23.7385 5.19964C23.9812 4.73164 24.3235 4.36764 24.7655 4.10764C25.2075 3.84764 25.7275 3.71764 26.3255 3.71764C26.6722 3.71764 26.9972 3.7783 27.3005 3.89964C27.6038 4.02097 27.8595 4.17264 28.0675 4.35464C28.2755 4.52797 28.4142 4.7013 28.4835 4.87464L28.5095 3.87364H29.8485V9.84064H28.5225L28.4965 8.78764C28.3492 9.09964 28.0805 9.37697 27.6905 9.61964C27.3005 9.85364 26.8628 9.97064 26.3775 9.97064ZM26.6115 8.80064C27.1055 8.80064 27.5215 8.63164 27.8595 8.29364C28.1975 7.94697 28.3665 7.4963 28.3665 6.94164V6.85064C28.3665 6.47797 28.2885 6.1443 28.1325 5.84964C27.9765 5.55497 27.7642 5.3253 27.4955 5.16064C27.2268 4.99597 26.9322 4.91364 26.6115 4.91364C26.0568 4.91364 25.6278 5.09564 25.3245 5.45964C25.0212 5.81497 24.8695 6.27864 24.8695 6.85064C24.8695 7.4313 25.0168 7.90364 25.3115 8.26764C25.6148 8.62297 26.0482 8.80064 26.6115 8.80064ZM9.84829 20.4346L12.1363 14.2856H13.6833L9.96529 23.8406H9.78329L7.18329 17.6526L4.59629 23.8276H4.41429L0.696293 14.2856H2.24329L4.53129 20.4346L7.15729 14.2336H7.23529L9.84829 20.4346ZM15.9854 23.9706C15.3701 23.9706 14.8241 23.832 14.3474 23.5546C13.8707 23.2773 13.5024 22.9003 13.2424 22.4236C12.9824 21.947 12.8524 21.4183 12.8524 20.8376C12.8524 20.2656 12.9781 19.7413 13.2294 19.2646C13.4894 18.788 13.8577 18.411 14.3344 18.1336C14.8111 17.8563 15.3614 17.7176 15.9854 17.7176C16.6094 17.7176 17.1554 17.8563 17.6234 18.1336C18.1001 18.411 18.4641 18.788 18.7154 19.2646C18.9754 19.7413 19.1054 20.2656 19.1054 20.8376C19.1054 21.4183 18.9754 21.947 18.7154 22.4236C18.4554 22.9003 18.0871 23.2773 17.6104 23.5546C17.1424 23.832 16.6007 23.9706 15.9854 23.9706ZM16.0244 22.8266C16.5271 22.8266 16.9214 22.6403 17.2074 22.2676C17.5021 21.895 17.6494 21.427 17.6494 20.8636C17.6494 20.3003 17.4934 19.828 17.1814 19.4466C16.8694 19.0566 16.4577 18.8616 15.9464 18.8616C15.4524 18.8616 15.0537 19.0523 14.7504 19.4336C14.4557 19.815 14.3084 20.2916 14.3084 20.8636C14.3084 21.4183 14.4687 21.8863 14.7894 22.2676C15.1101 22.6403 15.5217 22.8266 16.0244 22.8266ZM20.2148 17.8736H21.5928L21.6058 18.9656C21.7704 18.6016 22.0304 18.3026 22.3858 18.0686C22.7411 17.8346 23.1571 17.7176 23.6338 17.7176C24.2491 17.7176 24.7214 17.8476 25.0508 18.1076C25.3801 18.359 25.6011 18.7143 25.7138 19.1736C25.8264 19.633 25.8828 20.231 25.8828 20.9676V23.8406H24.4788V21.0066C24.4788 20.2526 24.4051 19.711 24.2578 19.3816C24.1104 19.0436 23.8071 18.8746 23.3478 18.8746C23.0878 18.8746 22.8234 18.957 22.5548 19.1216C22.2861 19.2776 22.0608 19.5073 21.8788 19.8106C21.7054 20.114 21.6188 20.4693 21.6188 20.8766V23.8406H20.2148V17.8736ZM29.9413 23.9706C29.404 23.9706 28.9056 23.845 28.4463 23.5936C27.9956 23.3336 27.6316 22.9696 27.3543 22.5016C27.0856 22.025 26.9513 21.4703 26.9513 20.8376C26.9513 19.893 27.2156 19.139 27.7443 18.5756C28.273 18.0036 28.988 17.7176 29.8893 17.7176C30.392 17.7176 30.8513 17.8433 31.2673 18.0946C31.6833 18.3373 31.965 18.632 32.1123 18.9786L32.0473 17.9646V14.2856H33.4253V23.8406H32.0863L32.0603 22.7876C31.913 23.0996 31.6443 23.377 31.2543 23.6196C30.8643 23.8536 30.4266 23.9706 29.9413 23.9706ZM30.1753 22.7876C30.6693 22.7876 31.0853 22.6186 31.4233 22.2806C31.7613 21.934 31.9303 21.4833 31.9303 20.9286V20.8376C31.9303 20.465 31.8523 20.1313 31.6963 19.8366C31.5403 19.542 31.328 19.3123 31.0593 19.1476C30.7906 18.983 30.496 18.9006 30.1753 18.9006C29.6206 18.9006 29.1916 19.0826 28.8883 19.4466C28.585 19.802 28.4333 20.2656 28.4333 20.8376C28.4333 21.4183 28.5806 21.8906 28.8753 22.2546C29.1786 22.61 29.612 22.7876 30.1753 22.7876ZM37.7187 23.9706C37.008 23.9706 36.4143 23.832 35.9377 23.5546C35.461 23.2686 35.11 22.8916 34.8847 22.4236C34.6593 21.947 34.5467 21.427 34.5467 20.8636C34.5467 20.231 34.6767 19.6763 34.9367 19.1996C35.2053 18.723 35.5737 18.359 36.0417 18.1076C36.5097 17.8476 37.0383 17.7176 37.6277 17.7176C38.5463 17.7176 39.2267 17.9733 39.6687 18.4846C40.1193 18.9873 40.3447 19.698 40.3447 20.6166C40.3447 20.8506 40.3317 21.0933 40.3057 21.3446H36.0157C36.111 21.8733 36.2973 22.2546 36.5747 22.4886C36.8607 22.7226 37.255 22.8396 37.7577 22.8396C38.1737 22.8396 38.516 22.805 38.7847 22.7356C39.0533 22.6663 39.3003 22.571 39.5257 22.4496L39.9547 23.4506C39.738 23.5893 39.4433 23.7106 39.0707 23.8146C38.698 23.9186 38.2473 23.9706 37.7187 23.9706ZM38.9797 20.3696C38.9883 19.8323 38.8713 19.4553 38.6287 19.2386C38.386 19.0133 38.0393 18.9006 37.5887 18.9006C36.6787 18.9006 36.1543 19.3903 36.0157 20.3696H38.9797ZM41.3876 17.8736H42.7916V19.0436C42.9303 18.645 43.1556 18.3243 43.4676 18.0816C43.7796 17.839 44.1349 17.7176 44.5336 17.7176C44.8109 17.7176 45.0016 17.7436 45.1056 17.7956L44.9106 19.2126C44.8326 19.1606 44.6636 19.1346 44.4036 19.1346C43.9963 19.1346 43.6236 19.2646 43.2856 19.5246C42.9563 19.7846 42.7916 20.2006 42.7916 20.7726V23.8406H41.3876V17.8736ZM45.8255 14.2856H47.2165V23.8406H45.8255V14.2856ZM51.436 23.9706C50.8987 23.9706 50.4003 23.845 49.941 23.5936C49.4903 23.3336 49.1263 22.9696 48.849 22.5016C48.5803 22.025 48.446 21.4703 48.446 20.8376C48.446 20.2136 48.563 19.6676 48.797 19.1996C49.0397 18.7316 49.382 18.3676 49.824 18.1076C50.266 17.8476 50.786 17.7176 51.384 17.7176C51.7307 17.7176 52.0557 17.7783 52.359 17.8996C52.6623 18.021 52.918 18.1726 53.126 18.3546C53.334 18.528 53.4727 18.7013 53.542 18.8746L53.568 17.8736H54.907V23.8406H53.581L53.555 22.7876C53.4077 23.0996 53.139 23.377 52.749 23.6196C52.359 23.8536 51.9213 23.9706 51.436 23.9706ZM51.67 22.8006C52.164 22.8006 52.58 22.6316 52.918 22.2936C53.256 21.947 53.425 21.4963 53.425 20.9416V20.8506C53.425 20.478 53.347 20.1443 53.191 19.8496C53.035 19.555 52.8227 19.3253 52.554 19.1606C52.2853 18.996 51.9907 18.9136 51.67 18.9136C51.1153 18.9136 50.6863 19.0956 50.383 19.4596C50.0797 19.815 49.928 20.2786 49.928 20.8506C49.928 21.4313 50.0753 21.9036 50.37 22.2676C50.6733 22.623 51.1067 22.8006 51.67 22.8006ZM56.4051 17.8736H57.7831L57.7961 18.9656C57.9607 18.6016 58.2207 18.3026 58.5761 18.0686C58.9314 17.8346 59.3474 17.7176 59.8241 17.7176C60.4394 17.7176 60.9117 17.8476 61.2411 18.1076C61.5704 18.359 61.7914 18.7143 61.9041 19.1736C62.0167 19.633 62.0731 20.231 62.0731 20.9676V23.8406H60.6691V21.0066C60.6691 20.2526 60.5954 19.711 60.4481 19.3816C60.3007 19.0436 59.9974 18.8746 59.5381 18.8746C59.2781 18.8746 59.0137 18.957 58.7451 19.1216C58.4764 19.2776 58.2511 19.5073 58.0691 19.8106C57.8957 20.114 57.8091 20.4693 57.8091 20.8766V23.8406H56.4051V17.8736ZM66.1316 23.9706C65.5943 23.9706 65.0959 23.845 64.6366 23.5936C64.1859 23.3336 63.8219 22.9696 63.5446 22.5016C63.2759 22.025 63.1416 21.4703 63.1416 20.8376C63.1416 19.893 63.4059 19.139 63.9346 18.5756C64.4633 18.0036 65.1783 17.7176 66.0796 17.7176C66.5823 17.7176 67.0416 17.8433 67.4576 18.0946C67.8736 18.3373 68.1553 18.632 68.3026 18.9786L68.2376 17.9646V14.2856H69.6156V23.8406H68.2766L68.2506 22.7876C68.1033 23.0996 67.8346 23.377 67.4446 23.6196C67.0546 23.8536 66.6169 23.9706 66.1316 23.9706ZM66.3656 22.7876C66.8596 22.7876 67.2756 22.6186 67.6136 22.2806C67.9516 21.934 68.1206 21.4833 68.1206 20.9286V20.8376C68.1206 20.465 68.0426 20.1313 67.8866 19.8366C67.7306 19.542 67.5183 19.3123 67.2496 19.1476C66.9809 18.983 66.6863 18.9006 66.3656 18.9006C65.8109 18.9006 65.3819 19.0826 65.0786 19.4466C64.7753 19.802 64.6236 20.2656 64.6236 20.8376C64.6236 21.4183 64.7709 21.8906 65.0656 22.2546C65.3689 22.61 65.8023 22.7876 66.3656 22.7876Z" fill="white"/>
</svg>
