<svg width="33" height="33" viewBox="0 0 33 33" fill="none" xmlns="http://www.w3.org/2000/svg">
<circle cx="16.5" cy="16.5" r="16.5" fill="#CBFA34"/>
<path d="M16.5 4.39062C9.81055 4.39062 4.39062 9.81055 4.39062 16.5C4.39062 23.1895 9.81055 28.6094 16.5 28.6094C23.1895 28.6094 28.6094 23.1895 28.6094 16.5C28.6094 9.81055 23.1895 4.39062 16.5 4.39062ZM16.5 9.07812C18.873 9.07812 20.7969 11.002 20.7969 13.375C20.7969 15.748 18.873 17.6719 16.5 17.6719C14.127 17.6719 12.2031 15.748 12.2031 13.375C12.2031 11.002 14.127 9.07812 16.5 9.07812ZM16.5 25.875C13.6338 25.875 11.0654 24.5762 9.34668 22.5449C10.2646 20.8164 12.0615 19.625 14.1562 19.625C14.2734 19.625 14.3906 19.6445 14.5029 19.6787C15.1377 19.8838 15.8018 20.0156 16.5 20.0156C17.1982 20.0156 17.8672 19.8838 18.4971 19.6787C18.6094 19.6445 18.7266 19.625 18.8438 19.625C20.9385 19.625 22.7354 20.8164 23.6533 22.5449C21.9346 24.5762 19.3662 25.875 16.5 25.875Z" fill="#151515"/>
</svg>
