<svg width="27" height="26" viewBox="0 0 27 26" fill="none" xmlns="http://www.w3.org/2000/svg">
<g clip-path="url(#clip0_2_11)">
<path d="M26.9747 20.215C26.6203 19.3863 25.6331 18.9922 24.7725 19.3375L23.8402 19.7113L22.2075 15.5716C24.2283 14.1497 24.9413 11.4969 23.663 9.36406L20.0095 3.25C19.672 2.68531 18.9506 2.44969 18.322 2.6975L13.5 4.62312L8.67798 2.6975C8.04938 2.44562 7.32798 2.68531 6.99048 3.25L3.33704 9.36406C2.06298 11.4969 2.77173 14.1497 4.79251 15.5675L3.15985 19.7072L2.22751 19.3334C1.36688 18.9881 0.383915 19.3822 0.0253213 20.2109C-0.0463974 20.3775 0.0337589 20.5684 0.206728 20.6375L7.05376 23.3756C7.22673 23.4447 7.42079 23.3675 7.49251 23.2009C7.84688 22.3722 7.44188 21.4216 6.58126 21.0763L5.64891 20.7025L7.3111 16.4938C7.49673 16.5141 7.68235 16.5466 7.86376 16.5466C10.0449 16.5466 12.0572 15.2019 12.6478 13.0813L13.5 10.0181L14.3522 13.0813C14.9428 15.2019 16.9552 16.5466 19.1363 16.5466C19.3177 16.5466 19.5033 16.5141 19.6889 16.4938L21.3469 20.7025L20.4145 21.0763C19.5539 21.4216 19.1447 22.3722 19.5033 23.2009C19.575 23.3675 19.7733 23.4447 19.942 23.3756L26.7933 20.6375C26.962 20.5684 27.0464 20.3816 26.9747 20.215ZM11.6395 9.18531L6.91032 7.29625L8.45017 4.72062L12.4369 6.31312L11.6395 9.18531ZM15.3605 9.18531L14.5631 6.31312L18.5499 4.72062L20.0897 7.29625L15.3605 9.18531Z" fill="white"/>
</g>
<defs>
<clipPath id="clip0_2_11">
<rect width="27" height="26" fill="white"/>
</clipPath>
</defs>
</svg>
