<svg width="27" height="22" viewBox="0 0 27 22" fill="none" xmlns="http://www.w3.org/2000/svg">
<path d="M13.1423 6.13719L4.49997 12.9915V20.3893C4.49997 20.5809 4.57899 20.7646 4.71964 20.9C4.86029 21.0355 5.05106 21.1116 5.24997 21.1116L10.5028 21.0985C10.701 21.0975 10.8908 21.021 11.0307 20.8857C11.1705 20.7503 11.249 20.5672 11.249 20.3763V16.056C11.249 15.8645 11.328 15.6808 11.4687 15.5453C11.6094 15.4099 11.8001 15.3338 11.999 15.3338H14.999C15.1979 15.3338 15.3887 15.4099 15.5294 15.5453C15.67 15.6808 15.749 15.8645 15.749 16.056V20.3731C15.7487 20.4681 15.7679 20.5623 15.8054 20.6502C15.843 20.7381 15.8982 20.8179 15.9679 20.8852C16.0375 20.9525 16.1203 21.0059 16.2115 21.0424C16.3026 21.0788 16.4003 21.0976 16.499 21.0976L21.75 21.1116C21.9489 21.1116 22.1396 21.0355 22.2803 20.9C22.4209 20.7646 22.5 20.5809 22.5 20.3893V12.9866L13.8595 6.13719C13.7579 6.05835 13.6314 6.01535 13.5009 6.01535C13.3704 6.01535 13.2439 6.05835 13.1423 6.13719V6.13719ZM26.7937 10.796L22.875 7.68546V1.43327C22.875 1.28961 22.8157 1.15183 22.7102 1.05025C22.6047 0.94867 22.4617 0.891602 22.3125 0.891602H19.6875C19.5383 0.891602 19.3952 0.94867 19.2897 1.05025C19.1842 1.15183 19.125 1.28961 19.125 1.43327V4.7108L14.9282 1.38587C14.5255 1.06673 14.0201 0.89224 13.4986 0.89224C12.977 0.89224 12.4716 1.06673 12.0689 1.38587L0.203408 10.796C0.146449 10.8413 0.0993241 10.897 0.0647266 10.9599C0.0301291 11.0228 0.00873668 11.0916 0.00177171 11.1624C-0.00519326 11.2333 0.0024057 11.3048 0.0241344 11.3728C0.0458631 11.4408 0.0812957 11.504 0.128408 11.5588L1.32372 12.9581C1.3707 13.0131 1.42849 13.0587 1.49378 13.0922C1.55907 13.1257 1.63057 13.1464 1.7042 13.1532C1.77783 13.1601 1.85213 13.1529 1.92286 13.132C1.99358 13.1111 2.05935 13.0771 2.11638 13.0317L13.1423 4.2865C13.2439 4.20765 13.3704 4.16465 13.5009 4.16465C13.6314 4.16465 13.7579 4.20765 13.8595 4.2865L24.8859 13.0317C24.9428 13.0771 25.0085 13.1112 25.0791 13.1321C25.1498 13.153 25.224 13.1604 25.2975 13.1537C25.3711 13.1469 25.4426 13.1263 25.5079 13.093C25.5732 13.0597 25.631 13.0143 25.6781 12.9595L26.8734 11.5602C26.9205 11.505 26.9557 11.4415 26.9772 11.3732C26.9987 11.3049 27.0059 11.2331 26.9985 11.1621C26.9911 11.0911 26.9692 11.0222 26.9341 10.9594C26.8989 10.8965 26.8512 10.841 26.7937 10.796V10.796Z" fill="white"/>
</svg>
