<svg width="42" height="41" viewBox="0 0 42 41" fill="none" xmlns="http://www.w3.org/2000/svg">
<path d="M27.9264 29.2534L24.1671 22.7872H31.4596L37.1127 32.5572C39.5718 29.1687 41.0416 25.0179 41.0416 20.5C41.0416 9.177 31.8553 0 20.5208 0C9.18631 0 0 9.177 0 20.5C0 25.0179 1.46981 29.1687 3.92891 32.5572L20.5208 3.84022L30.4137 20.98H23.1495L20.436 16.2927L16.6767 22.7872H22.1037L25.8347 29.2534H12.9456L8.42314 37.0751C11.815 39.5599 15.9983 41 20.5208 41C24.9868 41 29.1135 39.5599 32.4771 37.1598L27.9264 29.2534Z" fill="white"/>
</svg>
