<svg width="27" height="26" viewBox="0 0 27 26" fill="none" xmlns="http://www.w3.org/2000/svg">
<g clip-path="url(#clip0_2_23)">
<path d="M13.5 1.44444C10.238 1.44444 7.59375 3.99073 7.59375 7.13194C7.59375 9.67146 11.4539 14.3 12.9328 15.9801C13.2323 16.3204 13.7681 16.3204 14.0672 15.9801C15.5461 14.3 19.4062 9.67146 19.4062 7.13194C19.4062 3.99073 16.762 1.44444 13.5 1.44444ZM0.943125 11.1922C0.664771 11.2994 0.426155 11.4845 0.258051 11.7235C0.0899478 11.9625 6.6666e-05 12.2446 0 12.5333L0 23.8324C0 24.3434 0.535781 24.6928 1.02844 24.5032L7.5 21.6667V11.1457C7.08563 10.4244 6.74672 9.72201 6.50391 9.05035L0.943125 11.1922ZM13.5 17.6795C12.8405 17.6795 12.2166 17.4006 11.7886 16.914C10.867 15.8668 9.88688 14.6742 9 13.4509V21.6662L18 24.5551V13.4514C17.1131 14.6742 16.1334 15.8672 15.2114 16.9144C14.7834 17.4006 14.1595 17.6795 13.5 17.6795ZM25.9716 8.71903L19.5 11.5556V24.5556L26.0569 22.03C26.3353 21.9229 26.5739 21.7378 26.742 21.4988C26.9101 21.2597 27 20.9777 27 20.689V9.38979C27 8.87882 26.4642 8.52944 25.9716 8.71903Z" fill="white"/>
</g>
<defs>
<clipPath id="clip0_2_23">
<rect width="27" height="26" fill="white"/>
</clipPath>
</defs>
</svg>
