<svg width="27" height="26" viewBox="0 0 27 26" fill="none" xmlns="http://www.w3.org/2000/svg">
<g clip-path="url(#clip0_2_21)">
<path d="M8.80767 15.7087C6.69197 15.8397 4.77191 16.6156 3.68242 19.3802C3.55849 19.6955 3.26054 19.887 2.91302 19.887C2.32715 19.887 0.51572 18.4818 -0.000549316 18.1426C-2.19727e-05 22.3245 2.00019 26 6.74998 26C10.7504 26 13.5 23.7773 13.5 19.8966C13.5 19.7387 13.4657 19.5879 13.4488 19.433L8.80767 15.7087ZM24.1465 0C23.3471 0 22.5977 0.340742 22.0261 0.835352C11.2466 10.108 10.125 10.3259 10.125 13.0554C10.125 13.7511 10.2964 14.4143 10.5853 15.0206L13.9509 17.7211C14.3311 17.8125 14.7229 17.875 15.1316 17.875C18.4069 17.875 20.3053 15.566 26.267 4.85164C26.6561 4.12293 27 3.33582 27 2.51621C27 1.04813 25.6289 0 24.1465 0Z" fill="white"/>
</g>
<defs>
<clipPath id="clip0_2_21">
<rect width="27" height="26" fill="white"/>
</clipPath>
</defs>
</svg>
