<svg width="27" height="26" viewBox="0 0 27 26" fill="none" xmlns="http://www.w3.org/2000/svg">
<g clip-path="url(#clip0_2_13)">
<path d="M26.2584 3.76641L23.0885 0.713947C22.0998 -0.238201 20.4961 -0.238201 19.5073 0.713947L16.5252 3.58563L23.2763 10.0866L26.2584 7.21496C27.2472 6.26281 27.2472 4.71906 26.2584 3.76641ZM13.2435 2.72387C12.4198 1.93067 11.0846 1.93067 10.2609 2.72387L3.99711 8.75617C3.66752 9.07356 3.66752 9.58797 3.99711 9.90485L5.19048 11.054C5.52007 11.3714 6.05427 11.3714 6.38386 11.054L11.7533 5.88348L12.9467 7.03215L4.95423 14.728C2.18586 17.3939 0.441808 20.8875 0.00880514 24.6345L0.0072231 24.6461C-0.0824253 25.4221 0.598375 26.0782 1.40416 25.9923C5.30024 25.5781 8.93352 23.898 11.7053 21.2291L22.0829 11.2358L17.7181 7.03266L13.2435 2.72387Z" fill="white"/>
</g>
<defs>
<clipPath id="clip0_2_13">
<rect width="27" height="26" fill="white"/>
</clipPath>
</defs>
</svg>
