<svg width="27" height="26" viewBox="0 0 27 26" fill="none" xmlns="http://www.w3.org/2000/svg">
<path d="M26.3863 7.20064L23.5417 2.82791C23.2875 2.43538 22.836 2.19479 22.3539 2.19479H4.64608C4.16394 2.19479 3.71247 2.43538 3.45825 2.82791L0.613611 7.20064C-0.854734 9.45875 0.447052 12.599 3.19088 12.9578C3.38812 12.9831 3.58975 12.9958 3.79137 12.9958C5.08877 12.9958 6.23715 12.4471 7.02611 11.5987C7.81507 12.4471 8.96783 12.9958 10.2609 12.9958C11.5583 12.9958 12.7066 12.4471 13.4956 11.5987C14.2846 12.4471 15.4373 12.9958 16.7303 12.9958C18.0277 12.9958 19.1761 12.4471 19.9651 11.5987C20.7584 12.4471 21.9068 12.9958 23.1998 12.9958C23.4058 12.9958 23.6031 12.9831 23.8003 12.9578C26.5529 12.6032 27.8591 9.46297 26.3863 7.20064ZM23.2086 14.3506C22.7703 14.3506 22.3363 14.2873 21.9156 14.1902V18.4026H5.08439V14.1902C4.66361 14.2831 4.22968 14.3506 3.79137 14.3506C3.52838 14.3506 3.26101 14.3338 3.00241 14.3C2.75695 14.2662 2.51588 14.2113 2.28358 14.148V22.4545C2.28358 23.2016 2.91036 23.8052 3.68618 23.8052H23.3225C24.0984 23.8052 24.7251 23.2016 24.7251 22.4545V14.148C24.4885 14.2156 24.2518 14.2704 24.0063 14.3C23.7389 14.3338 23.476 14.3506 23.2086 14.3506Z" fill="white"/>
</svg>
