<svg width="27" height="26" viewBox="0 0 27 26" fill="none" xmlns="http://www.w3.org/2000/svg">
<path d="M24.3211 6.5H4.21875C3.75258 6.5 3.375 6.13641 3.375 5.6875C3.375 5.23859 3.75258 4.875 4.21875 4.875H24.4688C24.9349 4.875 25.3125 4.51141 25.3125 4.0625C25.3125 2.71629 24.1792 1.625 22.7812 1.625H3.375C1.51084 1.625 0 3.07988 0 4.875V21.125C0 22.9201 1.51084 24.375 3.375 24.375H24.3211C25.7987 24.375 27 23.2817 27 21.9375V8.9375C27 7.59332 25.7987 6.5 24.3211 6.5ZM21.9375 17.0625C21.0057 17.0625 20.25 16.3348 20.25 15.4375C20.25 14.5402 21.0057 13.8125 21.9375 13.8125C22.8693 13.8125 23.625 14.5402 23.625 15.4375C23.625 16.3348 22.8693 17.0625 21.9375 17.0625Z" fill="white"/>
</svg>
