<svg width="15" height="16" viewBox="0 0 15 16" fill="none" xmlns="http://www.w3.org/2000/svg">
<path d="M1.28906 6H13.7109C13.9043 6 14.0625 6.16875 14.0625 6.375V14.5C14.0625 15.3281 13.4326 16 12.6562 16H2.34375C1.56738 16 0.9375 15.3281 0.9375 14.5V6.375C0.9375 6.16875 1.0957 6 1.28906 6ZM14.0625 4.625V3.5C14.0625 2.67188 13.4326 2 12.6562 2H11.25V0.375C11.25 0.16875 11.0918 0 10.8984 0H9.72656C9.5332 0 9.375 0.16875 9.375 0.375V2H5.625V0.375C5.625 0.16875 5.4668 0 5.27344 0H4.10156C3.9082 0 3.75 0.16875 3.75 0.375V2H2.34375C1.56738 2 0.9375 2.67188 0.9375 3.5V4.625C0.9375 4.83125 1.0957 5 1.28906 5H13.7109C13.9043 5 14.0625 4.83125 14.0625 4.625Z" fill="white"/>
</svg>
