<svg width="17" height="21" viewBox="0 0 17 21" fill="none" xmlns="http://www.w3.org/2000/svg">
<path d="M7.69068 20.5763C1.73119 11.9368 0.625 11.0501 0.625 7.875C0.625 3.52574 4.15074 0 8.5 0C12.8493 0 16.375 3.52574 16.375 7.875C16.375 11.0501 15.2688 11.9368 9.30932 20.5763C8.91824 21.1413 8.08172 21.1412 7.69068 20.5763ZM8.5 11.1562C10.3122 11.1562 11.7812 9.68719 11.7812 7.875C11.7812 6.06281 10.3122 4.59375 8.5 4.59375C6.68781 4.59375 5.21875 6.06281 5.21875 7.875C5.21875 9.68719 6.68781 11.1562 8.5 11.1562Z" fill="white"/>
</svg>
