<svg width="12" height="12" viewBox="0 0 12 12" fill="none" xmlns="http://www.w3.org/2000/svg">
<path d="M10.3195 4.76992C9.9679 4.76992 9.65853 4.91523 9.43118 5.14258C8.59447 4.56367 7.46712 4.19102 6.2179 4.15117L6.86712 1.22617L8.93431 1.69023C8.93431 2.19648 9.34681 2.60898 9.85306 2.60898C10.3687 2.60898 10.7835 2.18477 10.7835 1.67852C10.7835 1.17227 10.371 0.748047 9.85306 0.748047C9.49212 0.748047 9.1804 0.966016 9.02572 1.26367L6.7429 0.757422C6.62806 0.726953 6.51556 0.808984 6.48509 0.923828L5.77259 4.14883C4.53275 4.20039 3.41712 4.57305 2.57806 5.15195C2.35072 4.91523 2.02962 4.76992 1.67806 4.76992C0.374934 4.76992 -0.0516289 6.51836 1.14134 7.11602C1.09915 7.30117 1.0804 7.49805 1.0804 7.69492C1.0804 9.65898 3.2929 11.2504 6.00931 11.2504C8.73744 11.2504 10.9499 9.65898 10.9499 7.69492C10.9499 7.49805 10.9288 7.2918 10.8773 7.10664C12.0468 6.50664 11.6156 4.76992 10.3195 4.76992ZM3.03275 7.24023C3.03275 6.72461 3.44525 6.30977 3.96322 6.30977C4.46947 6.30977 4.88197 6.72227 4.88197 7.24023C4.88197 7.74648 4.46947 8.15898 3.96322 8.15898C3.44759 8.16133 3.03275 7.74648 3.03275 7.24023ZM8.0554 9.43164C7.20228 10.2848 4.79525 10.2848 3.94212 9.43164C3.84837 9.34961 3.84837 9.2043 3.94212 9.11055C4.02415 9.02852 4.16947 9.02852 4.2515 9.11055C4.90306 9.77852 7.064 9.79023 7.74368 9.11055C7.82572 9.02852 7.97103 9.02852 8.05306 9.11055C8.14915 9.2043 8.14915 9.34961 8.0554 9.43164ZM8.03665 8.16133C7.5304 8.16133 7.1179 7.74883 7.1179 7.24258C7.1179 6.72695 7.5304 6.31211 8.03665 6.31211C8.55228 6.31211 8.96712 6.72461 8.96712 7.24258C8.96478 7.74648 8.55228 8.16133 8.03665 8.16133Z" fill="white"/>
</svg>
