<svg width="15" height="17" viewBox="0 0 15 17" fill="none" xmlns="http://www.w3.org/2000/svg">
<path d="M11.75 10.625C10.9993 10.625 10.3094 10.8846 9.76478 11.3188L6.36193 9.19199C6.4627 8.73615 6.4627 8.26381 6.36193 7.80798L9.76478 5.68119C10.3094 6.11539 10.9993 6.375 11.75 6.375C13.5104 6.375 14.9375 4.9479 14.9375 3.1875C14.9375 1.4271 13.5104 0 11.75 0C9.9896 0 8.5625 1.4271 8.5625 3.1875C8.5625 3.42517 8.58873 3.65666 8.63807 3.87949L5.23521 6.00628C4.69058 5.57212 4.00066 5.3125 3.25 5.3125C1.4896 5.3125 0.0625 6.7396 0.0625 8.5C0.0625 10.2604 1.4896 11.6875 3.25 11.6875C4.00066 11.6875 4.69058 11.4279 5.23521 10.9937L8.63807 13.1205C8.58777 13.3477 8.56243 13.5798 8.5625 13.8125C8.5625 15.5729 9.9896 17 11.75 17C13.5104 17 14.9375 15.5729 14.9375 13.8125C14.9375 12.0521 13.5104 10.625 11.75 10.625Z" fill="white"/>
</svg>
