<svg width="21" height="21" viewBox="0 0 21 21" fill="none" xmlns="http://www.w3.org/2000/svg">
<path d="M10.5 0.328125C4.88086 0.328125 0.328125 4.88086 0.328125 10.5C0.328125 16.1191 4.88086 20.6719 10.5 20.6719C16.1191 20.6719 20.6719 16.1191 20.6719 10.5C20.6719 4.88086 16.1191 0.328125 10.5 0.328125ZM12.842 14.6877L9.22441 12.0586C9.09727 11.9643 9.02344 11.8166 9.02344 11.6607V4.75781C9.02344 4.48711 9.24492 4.26562 9.51562 4.26562H11.4844C11.7551 4.26562 11.9766 4.48711 11.9766 4.75781V10.4057L14.5811 12.3006C14.8025 12.4605 14.8477 12.7682 14.6877 12.9896L13.5311 14.5811C13.3711 14.7984 13.0635 14.8477 12.842 14.6877Z" fill="white"/>
</svg>
