<svg width="14" height="12" viewBox="0 0 14 12" fill="none" xmlns="http://www.w3.org/2000/svg">
<path d="M1.3125 2.60938H12.6875C12.9291 2.60938 13.125 2.41351 13.125 2.17188V1.07812C13.125 0.836488 12.9291 0.640625 12.6875 0.640625H1.3125C1.07086 0.640625 0.875 0.836488 0.875 1.07812V2.17188C0.875 2.41351 1.07086 2.60938 1.3125 2.60938ZM1.3125 6.98438H12.6875C12.9291 6.98438 13.125 6.78851 13.125 6.54688V5.45312C13.125 5.21149 12.9291 5.01562 12.6875 5.01562H1.3125C1.07086 5.01562 0.875 5.21149 0.875 5.45312V6.54688C0.875 6.78851 1.07086 6.98438 1.3125 6.98438ZM1.3125 11.3594H12.6875C12.9291 11.3594 13.125 11.1635 13.125 10.9219V9.82812C13.125 9.58649 12.9291 9.39062 12.6875 9.39062H1.3125C1.07086 9.39062 0.875 9.58649 0.875 9.82812V10.9219C0.875 11.1635 1.07086 11.3594 1.3125 11.3594Z" fill="white"/>
</svg>
