<svg width="14" height="12" viewBox="0 0 14 12" fill="none" xmlns="http://www.w3.org/2000/svg">
<path d="M1.31152 2.60938H12.6865C12.9282 2.60938 13.124 2.41351 13.124 2.17188V1.07812C13.124 0.836488 12.9282 0.640625 12.6865 0.640625H1.31152C1.06989 0.640625 0.874023 0.836488 0.874023 1.07812V2.17188C0.874023 2.41351 1.06989 2.60938 1.31152 2.60938ZM1.31152 6.98438H12.6865C12.9282 6.98438 13.124 6.78851 13.124 6.54688V5.45312C13.124 5.21149 12.9282 5.01562 12.6865 5.01562H1.31152C1.06989 5.01562 0.874023 5.21149 0.874023 5.45312V6.54688C0.874023 6.78851 1.06989 6.98438 1.31152 6.98438ZM1.31152 11.3594H12.6865C12.9282 11.3594 13.124 11.1635 13.124 10.9219V9.82812C13.124 9.58649 12.9282 9.39062 12.6865 9.39062H1.31152C1.06989 9.39062 0.874023 9.58649 0.874023 9.82812V10.9219C0.874023 11.1635 1.06989 11.3594 1.31152 11.3594Z" fill="#1E1E1E"/>
</svg>
