<svg width="34" height="34" viewBox="0 0 34 34" fill="none" xmlns="http://www.w3.org/2000/svg">
<path d="M17.0066 9.36318C12.7832 9.36318 9.37657 12.7698 9.37657 16.9933C9.37657 21.2167 12.7832 24.6233 17.0066 24.6233C21.2301 24.6233 24.6367 21.2167 24.6367 16.9933C24.6367 12.7698 21.2301 9.36318 17.0066 9.36318ZM17.0066 21.9538C14.2773 21.9538 12.0461 19.7292 12.0461 16.9933C12.0461 14.2573 14.2707 12.0327 17.0066 12.0327C19.7426 12.0327 21.9672 14.2573 21.9672 16.9933C21.9672 19.7292 19.7359 21.9538 17.0066 21.9538ZM26.7285 9.05107C26.7285 10.0405 25.9316 10.8308 24.9488 10.8308C23.9594 10.8308 23.1691 10.0339 23.1691 9.05107C23.1691 8.06826 23.966 7.27139 24.9488 7.27139C25.9316 7.27139 26.7285 8.06826 26.7285 9.05107ZM31.782 10.8573C31.6691 8.47334 31.1246 6.36162 29.3781 4.62178C27.6383 2.88193 25.5266 2.3374 23.1426 2.21787C20.6856 2.07842 13.3211 2.07842 10.8641 2.21787C8.48672 2.33076 6.37501 2.87529 4.62852 4.61514C2.88204 6.35498 2.34415 8.4667 2.22462 10.8507C2.08516 13.3077 2.08516 20.6722 2.22462 23.1292C2.33751 25.5132 2.88204 27.6249 4.62852 29.3647C6.37501 31.1046 8.48008 31.6491 10.8641 31.7687C13.3211 31.9081 20.6856 31.9081 23.1426 31.7687C25.5266 31.6558 27.6383 31.1112 29.3781 29.3647C31.118 27.6249 31.6625 25.5132 31.782 23.1292C31.9215 20.6722 31.9215 13.3144 31.782 10.8573ZM28.6078 25.7655C28.0898 27.0671 27.0871 28.0698 25.7789 28.5944C23.8199 29.3714 19.1715 29.1921 17.0066 29.1921C14.8418 29.1921 10.1867 29.3647 8.23438 28.5944C6.93282 28.0765 5.93008 27.0737 5.40547 25.7655C4.62852 23.8065 4.80782 19.1581 4.80782 16.9933C4.80782 14.8284 4.63516 10.1733 5.40547 8.221C5.92344 6.91943 6.92618 5.9167 8.23438 5.39209C10.1934 4.61514 14.8418 4.79443 17.0066 4.79443C19.1715 4.79443 23.8266 4.62178 25.7789 5.39209C27.0805 5.91006 28.0832 6.91279 28.6078 8.221C29.3848 10.18 29.2055 14.8284 29.2055 16.9933C29.2055 19.1581 29.3848 23.8132 28.6078 25.7655Z" fill="#393939"/>
</svg>
