<svg width="13" height="13" viewBox="0 0 13 13" fill="none" xmlns="http://www.w3.org/2000/svg">
<path d="M11.3912 7.94439H4.77506L4.92278 8.66661H10.9808C11.3284 8.66661 11.586 8.98938 11.509 9.32833L11.3845 9.87622C11.8063 10.081 12.0972 10.5134 12.0972 11.0138C12.0972 11.718 11.5213 12.2877 10.8147 12.2776C10.1416 12.2679 9.58809 11.7217 9.56992 11.0487C9.55999 10.6812 9.70725 10.348 9.94915 10.111H5.21751C5.45172 10.3405 5.59722 10.6601 5.59722 11.0138C5.59722 11.7318 4.9985 12.31 4.27307 12.2763C3.62894 12.2464 3.10508 11.726 3.07123 11.082C3.04509 10.5847 3.30676 10.1464 3.70432 9.91775L2.11889 2.16661H0.541667C0.242509 2.16661 0 1.9241 0 1.62495V1.26383C0 0.964677 0.242509 0.722168 0.541667 0.722168H2.85569C3.113 0.722168 3.33479 0.903197 3.38636 1.15528L3.59324 2.16661H12.4581C12.8057 2.16661 13.0633 2.48938 12.9863 2.82833L11.9194 7.52277C11.8633 7.76939 11.6441 7.94439 11.3912 7.94439ZM9.20833 4.51383H8.125V3.61106C8.125 3.41161 7.96334 3.24995 7.76389 3.24995H7.40278C7.20333 3.24995 7.04167 3.41161 7.04167 3.61106V4.51383H5.95833C5.75889 4.51383 5.59722 4.6755 5.59722 4.87495V5.23606C5.59722 5.4355 5.75889 5.59717 5.95833 5.59717H7.04167V6.49995C7.04167 6.69939 7.20333 6.86106 7.40278 6.86106H7.76389C7.96334 6.86106 8.125 6.69939 8.125 6.49995V5.59717H9.20833C9.40778 5.59717 9.56944 5.4355 9.56944 5.23606V4.87495C9.56944 4.6755 9.40778 4.51383 9.20833 4.51383Z" fill="#262626"/>
</svg>
