<svg width="14" height="15" viewBox="0 0 14 15" fill="none" xmlns="http://www.w3.org/2000/svg">
<path d="M10 13.125V14.2969C10 14.6852 9.66422 15 9.25 15H0.75C0.335781 15 0 14.6852 0 14.2969V3.51562C0 3.1273 0.335781 2.8125 0.75 2.8125H3V11.4844C3 12.389 3.78503 13.125 4.75 13.125H10ZM10 3.04688V0H4.75C4.33578 0 4 0.314795 4 0.703125V11.4844C4 11.8727 4.33578 12.1875 4.75 12.1875H13.25C13.6642 12.1875 14 11.8727 14 11.4844V3.75H10.75C10.3375 3.75 10 3.43359 10 3.04688ZM13.7803 2.13782L11.7197 0.205928C11.579 0.0740749 11.3882 9.74989e-07 11.1893 0L11 0V2.8125H14V2.63499C14 2.44852 13.921 2.26968 13.7803 2.13782Z" fill="white"/>
</svg>
