<svg width="132" height="132" viewBox="0 0 132 132" fill="none" xmlns="http://www.w3.org/2000/svg">
<path d="M113.563 14.709L72.3389 45.3267L79.9622 27.2627L113.563 14.709Z" fill="#E2761B" stroke="#E2761B" stroke-linecap="round" stroke-linejoin="round"/>
<path d="M18.3955 14.709L59.2882 45.6167L52.0377 27.2627L18.3955 14.709Z" fill="#E4761B" stroke="#E4761B" stroke-linecap="round" stroke-linejoin="round"/>
<path d="M98.7308 85.6816L87.7515 102.503L111.243 108.966L117.996 86.0545L98.7308 85.6816Z" fill="#E4761B" stroke="#E4761B" stroke-linecap="round" stroke-linejoin="round"/>
<path d="M14.0454 86.0545L20.7573 108.966L44.2488 102.503L33.2695 85.6816L14.0454 86.0545Z" fill="#E4761B" stroke="#E4761B" stroke-linecap="round" stroke-linejoin="round"/>
<path d="M42.9231 57.2589L36.377 67.161L59.7028 68.1968L58.8741 43.1309L42.9231 57.2589Z" fill="#E4761B" stroke="#E4761B" stroke-linecap="round" stroke-linejoin="round"/>
<path d="M89.0361 57.2579L72.878 42.8398L72.3394 68.1958L95.6237 67.16L89.0361 57.2579Z" fill="#E4761B" stroke="#E4761B" stroke-linecap="round" stroke-linejoin="round"/>
<path d="M44.249 102.501L58.2528 95.6651L46.1549 86.2188L44.249 102.501Z" fill="#E4761B" stroke="#E4761B" stroke-linecap="round" stroke-linejoin="round"/>
<path d="M73.7065 95.6651L87.7517 102.501L85.8045 86.2188L73.7065 95.6651Z" fill="#E4761B" stroke="#E4761B" stroke-linecap="round" stroke-linejoin="round"/>
<path d="M87.7513 102.5L73.7061 95.6641L74.8247 104.82L74.7004 108.673L87.7513 102.5Z" fill="#D7C1B3" stroke="#D7C1B3" stroke-linecap="round" stroke-linejoin="round"/>
<path d="M44.2485 102.5L57.2994 108.673L57.2165 104.82L58.2523 95.6641L44.2485 102.5Z" fill="#D7C1B3" stroke="#D7C1B3" stroke-linecap="round" stroke-linejoin="round"/>
<path d="M57.5064 80.17L45.8228 76.7312L54.0676 72.9609L57.5064 80.17Z" fill="#233447" stroke="#233447" stroke-linecap="round" stroke-linejoin="round"/>
<path d="M74.4521 80.17L77.8909 72.9609L86.1772 76.7312L74.4521 80.17Z" fill="#233447" stroke="#233447" stroke-linecap="round" stroke-linejoin="round"/>
<path d="M44.2488 102.501L46.2375 85.6797L33.2695 86.0526L44.2488 102.501Z" fill="#CD6116" stroke="#CD6116" stroke-linecap="round" stroke-linejoin="round"/>
<path d="M85.7627 85.6797L87.7514 102.501L98.7307 86.0526L85.7627 85.6797Z" fill="#CD6116" stroke="#CD6116" stroke-linecap="round" stroke-linejoin="round"/>
<path d="M95.6237 67.1602L72.3394 68.1959L74.4938 80.1696L77.9326 72.9605L86.2188 76.7308L95.6237 67.1602Z" fill="#CD6116" stroke="#CD6116" stroke-linecap="round" stroke-linejoin="round"/>
<path d="M45.8233 76.7308L54.1095 72.9605L57.5069 80.1696L59.7028 68.1959L36.377 67.1602L45.8233 76.7308Z" fill="#CD6116" stroke="#CD6116" stroke-linecap="round" stroke-linejoin="round"/>
<path d="M36.3765 67.1602L46.1542 86.2185L45.8228 76.7308L36.3765 67.1602Z" fill="#E4751F" stroke="#E4751F" stroke-linecap="round" stroke-linejoin="round"/>
<path d="M86.218 76.7308L85.8037 86.2185L95.6229 67.1602L86.218 76.7308Z" fill="#E4751F" stroke="#E4751F" stroke-linecap="round" stroke-linejoin="round"/>
<path d="M59.7022 68.1953L57.5063 80.1689L60.2408 94.297L60.8623 75.6944L59.7022 68.1953Z" fill="#E4751F" stroke="#E4751F" stroke-linecap="round" stroke-linejoin="round"/>
<path d="M72.3389 68.1953L71.2202 75.6529L71.7174 94.297L74.4933 80.1689L72.3389 68.1953Z" fill="#E4751F" stroke="#E4751F" stroke-linecap="round" stroke-linejoin="round"/>
<path d="M74.4932 80.1693L71.7173 94.2973L73.706 95.6646L85.8039 86.2182L86.2182 76.7305L74.4932 80.1693Z" fill="#F6851B" stroke="#F6851B" stroke-linecap="round" stroke-linejoin="round"/>
<path d="M45.8228 76.7305L46.1542 86.2182L58.2521 95.6646L60.2408 94.2973L57.5064 80.1693L45.8228 76.7305Z" fill="#F6851B" stroke="#F6851B" stroke-linecap="round" stroke-linejoin="round"/>
<path d="M74.7005 108.673L74.8248 104.82L73.789 103.909H58.1694L57.2165 104.82L57.2994 108.673L44.2485 102.5L48.806 106.229L58.0451 112.651H73.9133L83.1939 106.229L87.7514 102.5L74.7005 108.673Z" fill="#C0AD9E" stroke="#C0AD9E" stroke-linecap="round" stroke-linejoin="round"/>
<path d="M73.7064 95.6641L71.7177 94.2969H60.2413L58.2526 95.6641L57.2168 104.82L58.1697 103.909H73.7893L74.8251 104.82L73.7064 95.6641Z" fill="#161616" stroke="#161616" stroke-linecap="round" stroke-linejoin="round"/>
<path d="M115.304 47.3154L118.825 30.4114L113.563 14.709L73.7065 44.2909L89.0361 57.2589L110.705 63.5979L115.511 58.0047L113.439 56.5131L116.754 53.4887L114.185 51.5L117.499 48.9726L115.304 47.3154Z" fill="#763D16" stroke="#763D16" stroke-linecap="round" stroke-linejoin="round"/>
<path d="M13.1753 30.4114L16.697 47.3154L14.4597 48.9726L17.7742 51.5L15.2469 53.4887L18.5614 56.5131L16.4898 58.0047L21.2544 63.5979L42.9229 57.2589L58.2525 44.2909L18.3956 14.709L13.1753 30.4114Z" fill="#763D16" stroke="#763D16" stroke-linecap="round" stroke-linejoin="round"/>
<path d="M110.704 63.5968L89.0358 57.2578L95.6234 67.1599L85.8042 86.2183L98.7308 86.0525H117.996L110.704 63.5968Z" fill="#F6851B" stroke="#F6851B" stroke-linecap="round" stroke-linejoin="round"/>
<path d="M42.923 57.2578L21.2544 63.5968L14.0454 86.0525H33.2695L46.1546 86.2183L36.3769 67.1599L42.923 57.2578Z" fill="#F6851B" stroke="#F6851B" stroke-linecap="round" stroke-linejoin="round"/>
<path d="M72.3389 68.1958L73.7061 44.29L80.0037 27.2617H52.0376L58.2523 44.29L59.7024 68.1958L60.1996 75.7363L60.241 94.2975H71.7174L71.8003 75.7363L72.3389 68.1958Z" fill="#F6851B" stroke="#F6851B" stroke-linecap="round" stroke-linejoin="round"/>
</svg>
