<svg width="122" height="75" viewBox="0 0 122 75" fill="none" xmlns="http://www.w3.org/2000/svg">
<path d="M24.9848 14.6993C44.8753 -4.71486 77.1243 -4.71486 97.0149 14.6993L99.4088 17.0358C100.403 18.0065 100.403 19.5803 99.4088 20.551L91.2198 28.5438C90.7226 29.0291 89.9163 29.0291 89.4191 28.5438L86.1248 25.3285C72.2487 11.7847 49.751 11.7847 35.8748 25.3285L32.347 28.7718C31.8497 29.2572 31.0435 29.2572 30.5462 28.7718L22.3573 20.779C21.3628 19.8083 21.3628 18.2345 22.3573 17.2638L24.9848 14.6993ZM113.95 31.2292L121.239 38.3428C122.233 39.3135 122.233 40.8873 121.239 41.858L88.3757 73.9341C87.3812 74.9048 85.7688 74.9049 84.7742 73.9342C84.7742 73.9342 84.7742 73.9341 84.7742 73.9341L61.4502 51.1688C61.2015 50.9261 60.7984 50.9261 60.5498 51.1688C60.5498 51.1688 60.5498 51.1688 60.5498 51.1688L37.2263 73.9341C36.2318 74.9048 34.6193 74.9049 33.6248 73.9342C33.6248 73.9342 33.6248 73.9342 33.6248 73.9341L0.761033 41.8576C-0.233495 40.8869 -0.233495 39.3131 0.761033 38.3423L8.0492 31.2288C9.04373 30.258 10.6562 30.258 11.6507 31.2288L34.9751 53.9944C35.2237 54.2371 35.6268 54.2371 35.8754 53.9944C35.8755 53.9944 35.8755 53.9944 35.8755 53.9944L59.1986 31.2288C60.1932 30.258 61.8056 30.258 62.8002 31.2287C62.8002 31.2287 62.8002 31.2287 62.8002 31.2287L86.1245 53.9944C86.3732 54.2371 86.7763 54.2371 87.0249 53.9944L110.349 31.2292C111.343 30.2585 112.956 30.2585 113.95 31.2292Z" fill="#3B99FC"/>
</svg>
