<svg width="22" height="21" viewBox="0 0 22 21" fill="none" xmlns="http://www.w3.org/2000/svg">
<path d="M14.3038 14.9835L12.3782 11.6715H16.1134L19.0089 16.6756C20.2685 14.9401 21.0213 12.814 21.0213 10.5C21.0213 4.70041 16.3161 0 10.5107 0C4.70518 0 0 4.70041 0 10.5C0 12.814 0.752829 14.9401 2.01237 16.6756L10.5107 1.96694L15.5778 10.7459H11.8571L10.4672 8.34504L8.54171 11.6715H11.3214L13.2324 14.9835H6.63069L4.31429 18.9897C6.05159 20.2624 8.19425 21 10.5107 21C12.7981 21 14.9118 20.2624 16.6346 19.0331L14.3038 14.9835Z" fill="white"/>
</svg>
