<svg width="41" height="36" viewBox="0 0 41 36" fill="none" xmlns="http://www.w3.org/2000/svg">
<rect width="41" height="36" rx="4" fill="white" fill-opacity="0.1"/>
<path d="M24.0625 25.625V27.1094C24.0625 27.6013 23.6638 28 23.1719 28H13.0781C12.5862 28 12.1875 27.6013 12.1875 27.1094V13.4531C12.1875 12.9612 12.5862 12.5625 13.0781 12.5625H15.75V23.5469C15.75 24.6928 16.6822 25.625 17.8281 25.625H24.0625ZM24.0625 12.8594V9H17.8281C17.3362 9 16.9375 9.39874 16.9375 9.89062V23.5469C16.9375 24.0388 17.3362 24.4375 17.8281 24.4375H27.9219C28.4138 24.4375 28.8125 24.0388 28.8125 23.5469V13.75H24.9531C24.4633 13.75 24.0625 13.3492 24.0625 12.8594ZM28.5517 11.7079L26.1046 9.26084C25.9376 9.09383 25.711 9 25.4748 9H25.25V12.5625H28.8125V12.3377C28.8125 12.1015 28.7187 11.8749 28.5517 11.7079Z" fill="white"/>
</svg>
