<svg width="21" height="21" viewBox="0 0 21 21" fill="none" xmlns="http://www.w3.org/2000/svg">
<path d="M9.80684 0.258427L1.27559 3.45765C0.508594 3.74476 0 4.48304 0 5.30335V14.536C0 15.2824 0.422461 15.9633 1.08691 16.2955L9.61816 20.5612C10.1719 20.8401 10.824 20.8401 11.3777 20.5612L19.909 16.2955C20.5775 15.9633 20.9959 15.2783 20.9959 14.536V5.30335C20.9959 4.48304 20.4873 3.74886 19.7203 3.46175L11.1891 0.262529C10.7461 0.0902634 10.2539 0.0902634 9.80684 0.258427ZM10.5 2.8055L18.375 5.75862V5.80374L10.5 9.00296L2.625 5.80374V5.75862L10.5 2.8055ZM11.8125 17.4071V11.2998L18.375 8.63382V14.1258L11.8125 17.4071Z" fill="white"/>
</svg>
