<svg width="41" height="36" viewBox="0 0 41 36" fill="none" xmlns="http://www.w3.org/2000/svg">
<rect width="41" height="36" rx="4" fill="white" fill-opacity="0.1"/>
<path d="M29.75 11.125V24.875C29.75 25.9105 28.9105 26.75 27.875 26.75H14.125C13.0895 26.75 12.25 25.9105 12.25 24.875V11.125C12.25 10.0895 13.0895 9.25 14.125 9.25H27.875C28.9105 9.25 29.75 10.0895 29.75 11.125ZM26.3125 11.75H21.9386C21.1061 11.75 20.6855 12.7602 21.2757 13.3504L22.5251 14.5999L14.8873 22.2377C14.7043 22.4207 14.7043 22.7175 14.8873 22.9006L16.0994 24.1127C16.2825 24.2957 16.5793 24.2957 16.7623 24.1127L24.4 16.475L25.6496 17.7246C26.2366 18.3116 27.25 17.8994 27.25 17.0617V12.6875C27.25 12.1697 26.8303 11.75 26.3125 11.75Z" fill="white"/>
</svg>
