<svg width="33" height="32" viewBox="0 0 33 32" fill="none" xmlns="http://www.w3.org/2000/svg">
<rect y="32" width="32" height="33" rx="6" transform="rotate(-90 0 32)" fill="url(#paint0_linear_0_1)"/>
<path d="M26.4302 11.1118C26.446 11.3249 26.446 11.5382 26.446 11.7514C26.446 18.2539 21.2906 25.7463 11.868 25.7463C8.96509 25.7463 6.26841 24.9391 4 23.5382C4.41245 23.5838 4.80898 23.5991 5.2373 23.5991C7.63257 23.5991 9.83755 22.8224 11.5983 21.4976C9.3458 21.4519 7.45811 20.0356 6.80771 18.0864C7.125 18.132 7.44224 18.1625 7.77539 18.1625C8.2354 18.1625 8.69546 18.1016 9.12373 17.995C6.77603 17.5381 5.01519 15.5585 5.01519 13.1676V13.1067C5.69727 13.4722 6.49048 13.7006 7.33115 13.731C5.95107 12.8478 5.04692 11.3402 5.04692 9.63458C5.04692 8.72089 5.30068 7.88333 5.74487 7.15236C8.26709 10.1371 12.0583 12.0863 16.3096 12.2996C16.2303 11.9341 16.1827 11.5534 16.1827 11.1727C16.1827 8.462 18.4669 6.25391 21.3064 6.25391C22.7816 6.25391 24.1141 6.84781 25.05 7.8072C26.208 7.59402 27.3184 7.18283 28.302 6.61939C27.9212 7.76155 27.1122 8.72094 26.0494 9.33003C27.0805 9.22348 28.0799 8.94931 28.9999 8.56864C28.302 9.54322 27.4295 10.4112 26.4302 11.1118Z" fill="#393939"/>
<defs>
<linearGradient id="paint0_linear_0_1" x1="40" y1="24.8261" x2="-6.99462" y2="71.7407" gradientUnits="userSpaceOnUse">
<stop stop-color="#CBFA34"/>
<stop offset="1" stop-color="#66ACD4"/>
</linearGradient>
</defs>
</svg>
