<svg width="100" height="100" viewBox="0 0 100 100" fill="none" xmlns="http://www.w3.org/2000/svg">
<circle cx="50" cy="50" r="50" fill="#CBFA34"/>
<path d="M50 13.1875C29.6641 13.1875 13.1875 29.6641 13.1875 50C13.1875 70.3359 29.6641 86.8125 50 86.8125C70.3359 86.8125 86.8125 70.3359 86.8125 50C86.8125 29.6641 70.3359 13.1875 50 13.1875ZM50 27.4375C57.2141 27.4375 63.0625 33.2859 63.0625 40.5C63.0625 47.7141 57.2141 53.5625 50 53.5625C42.7859 53.5625 36.9375 47.7141 36.9375 40.5C36.9375 33.2859 42.7859 27.4375 50 27.4375ZM50 78.5C41.2867 78.5 33.4789 74.5516 28.2539 68.3766C31.0445 63.1219 36.507 59.5 42.875 59.5C43.2313 59.5 43.5875 59.5594 43.9289 59.6633C45.8586 60.2867 47.8773 60.6875 50 60.6875C52.1227 60.6875 54.1562 60.2867 56.0711 59.6633C56.4125 59.5594 56.7687 59.5 57.125 59.5C63.493 59.5 68.9555 63.1219 71.7461 68.3766C66.5211 74.5516 58.7133 78.5 50 78.5Z" fill="#151515"/>
</svg>
