<svg width="70" height="55" viewBox="0 0 70 55" fill="none" xmlns="http://www.w3.org/2000/svg">
<g clip-path="url(#clip0_879_2089)">
<path d="M67.829 11.871H0.942993V53.51H67.829V11.871Z" fill="white"/>
<path d="M10.8718 0.000906427L8.50076 1.36804L9.93533 3.85605L12.3064 2.48892L10.8718 0.000906427Z" fill="#282D33"/>
<path d="M17.215 3.801H14.342V6.537H17.215V3.801Z" fill="#282D33"/>
<path d="M20.8068 0.206165L19.3698 2.6939L21.7397 4.06294L23.1768 1.57521L20.8068 0.206165Z" fill="#282D33"/>
<path d="M69.059 54.244H0V10.601H69.059V54.244ZM2.873 51.371H66.187V13.473H2.873V51.371Z" fill="#282D33"/>
<path d="M63.314 16.346H5.745V48.499H63.314V16.346Z" fill="#ADD44C"/>
<path d="M44.838 9.069H41.966V6.444H29.008V9.069H26.136V3.571H44.838V9.069Z" fill="#282D33"/>
<path d="M63.775 5.878H52.285V8.751H63.775V5.878Z" fill="#282D33"/>
<path d="M51.242 35.034C51.242 44.462 43.599 52.105 34.171 52.105C24.743 52.105 17.1 44.462 17.1 35.034C17.1 25.606 24.743 17.963 34.171 17.963C43.6 17.963 51.242 25.606 51.242 35.034Z" fill="white"/>
<path d="M34.171 53.541C23.966 53.541 15.664 45.239 15.664 35.034C15.664 24.829 23.967 16.527 34.171 16.527C44.376 16.527 52.678 24.829 52.678 35.034C52.678 45.239 44.376 53.541 34.171 53.541ZM34.171 19.399C25.55 19.399 18.536 26.413 18.536 35.034C18.536 43.655 25.55 50.669 34.171 50.669C42.792 50.669 49.806 43.655 49.806 35.034C49.806 26.413 42.792 19.399 34.171 19.399Z" fill="#282D33"/>
<path d="M34.171 24.284C32.731 24.284 31.359 24.573 30.104 25.086C31.162 25.852 31.853 27.095 31.853 28.501C31.853 30.829 29.965 32.716 27.638 32.716C26.233 32.716 24.99 32.024 24.225 30.967C23.712 32.222 23.423 33.594 23.423 35.034C23.423 40.97 28.236 45.782 34.172 45.782C40.108 45.782 44.921 40.97 44.921 35.034C44.92 29.098 40.108 24.284 34.171 24.284Z" fill="#B7BEC0"/>
<path d="M34.171 47.218C27.452 47.218 21.986 41.752 21.986 35.034C21.986 33.449 22.292 31.898 22.895 30.423L23.873 28.032L25.388 30.125C25.911 30.848 26.753 31.28 27.638 31.28C29.17 31.28 30.417 30.033 30.417 28.501C30.417 27.615 29.985 26.774 29.261 26.249L27.17 24.734L29.561 23.757C31.036 23.154 32.587 22.848 34.171 22.848C40.89 22.848 46.356 28.315 46.356 35.034C46.356 41.752 40.89 47.218 34.171 47.218ZM24.989 33.487C24.903 33.996 24.859 34.513 24.859 35.034C24.859 40.169 29.037 44.346 34.171 44.346C39.306 44.346 43.484 40.169 43.484 35.034C43.484 29.899 39.306 25.721 34.171 25.721C33.65 25.721 33.134 25.765 32.625 25.851C33.055 26.658 33.29 27.567 33.29 28.502C33.29 31.618 30.755 34.153 27.638 34.153C26.704 34.152 25.795 33.917 24.989 33.487Z" fill="#282D33"/>
</g>
<defs>
<clipPath id="clip0_879_2089">
<rect width="69.059" height="54.244" fill="white"/>
</clipPath>
</defs>
</svg>
