<svg width="60" height="58" viewBox="0 0 60 58" fill="none" xmlns="http://www.w3.org/2000/svg">
<path d="M32 39V30.2V21.2C32 17.223 35.224 14 39.2 14H42.8C46.777 14 50 17.224 50 21.2V30.2V39" fill="#9690C4"/>
<path d="M59 48H1C0.447 48 0 47.553 0 47V5C0 4.447 0.447 4 1 4H59C59.553 4 60 4.447 60 5V47C60 47.553 59.553 48 59 48ZM2 46H58V6H2V46Z" fill="#8A8B88"/>
<path d="M55 44H5C4.447 44 4 43.553 4 43V9C4 8.447 4.447 8 5 8H55C55.553 8 56 8.447 56 9V43C56 43.553 55.553 44 55 44ZM6 42H54V10H6V42Z" fill="#8A8B88"/>
<path d="M37 58H23C22.447 58 22 57.553 22 57V47C22 46.447 22.447 46 23 46H37C37.553 46 38 46.447 38 47V57C38 57.553 37.553 58 37 58ZM24 56H36V48H24V56Z" fill="#8A8B88"/>
<path d="M41 56H19V58H41V56Z" fill="#8A8B88"/>
<path d="M10 39V30.2V21.2C10 17.223 13.224 14 17.2 14H20.8C24.777 14 28 17.224 28 21.2V30.2V39" fill="#9690C4"/>
<path d="M15 37H13V39H15V37Z" fill="#8A8B88"/>
<path d="M18 37H16V39H18V37Z" fill="#8A8B88"/>
<path d="M22 37H20V39H22V37Z" fill="#8A8B88"/>
<path d="M25 37H23V39H25V37Z" fill="#8A8B88"/>
<path d="M17 21H13V23H17V21Z" fill="#8A8B88"/>
<path d="M25 21H21V23H25V21Z" fill="#8A8B88"/>
<path d="M51 39H49V21.2C49 17.781 46.219 15 42.8 15H39.2C35.781 15 33 17.781 33 21.2V25H31V21.2C31 16.679 34.679 13 39.2 13H42.8C47.321 13 51 16.679 51 21.2V39Z" fill="#8A8B88"/>
<path d="M33 35H31V39H33V35Z" fill="#8A8B88"/>
<path d="M37 37H35V39H37V37Z" fill="#8A8B88"/>
<path d="M40 37H38V39H40V37Z" fill="#8A8B88"/>
<path d="M44 37H42V39H44V37Z" fill="#8A8B88"/>
<path d="M47 37H45V39H47V37Z" fill="#8A8B88"/>
<path d="M39 21H35V23H39V21Z" fill="#8A8B88"/>
<path d="M47 21H43V23H47V21Z" fill="#8A8B88"/>
<path d="M22 34H18V32H21V31H23V33C23 33.553 22.553 34 22 34Z" fill="#8A8B88"/>
<path d="M41 32H39V29C39 28.447 39.447 28 40 28H50V30H41V32Z" fill="#8A8B88"/>
<path d="M33 32H31V29C31 28.447 31.447 28 32 28H37V30H33V32Z" fill="#8A8B88"/>
<path d="M3 0H1V2H3V0Z" fill="#8A8B88"/>
<path d="M7 0H5V2H7V0Z" fill="#8A8B88"/>
<path d="M11 0H9V2H11V0Z" fill="#8A8B88"/>
<path d="M15 0H13V2H15V0Z" fill="#8A8B88"/>
<path d="M19 0H17V2H19V0Z" fill="#8A8B88"/>
<path d="M23 0H21V2H23V0Z" fill="#8A8B88"/>
<path d="M27 0H25V2H27V0Z" fill="#8A8B88"/>
<path d="M31 0H29V2H31V0Z" fill="#8A8B88"/>
<path d="M35 0H33V2H35V0Z" fill="#8A8B88"/>
<path d="M39 0H37V2H39V0Z" fill="#8A8B88"/>
<path d="M43 0H41V2H43V0Z" fill="#8A8B88"/>
<path d="M47 0H45V2H47V0Z" fill="#8A8B88"/>
<path d="M51 0H49V2H51V0Z" fill="#8A8B88"/>
<path d="M55 0H53V2H55V0Z" fill="#8A8B88"/>
<path d="M59 0H57V2H59V0Z" fill="#8A8B88"/>
</svg>
