<svg width="8" height="9" viewBox="0 0 8 9" fill="none" xmlns="http://www.w3.org/2000/svg">
<path d="M3.61461 8.81842C0.776758 5.11578 0.25 4.73578 0.25 3.375C0.25 1.51103 1.92893 0 4 0C6.07107 0 7.75 1.51103 7.75 3.375C7.75 4.73578 7.22324 5.11578 4.38539 8.81842C4.19916 9.06054 3.80082 9.06052 3.61461 8.81842ZM4 4.78125C4.86295 4.78125 5.5625 4.15165 5.5625 3.375C5.5625 2.59835 4.86295 1.96875 4 1.96875C3.13705 1.96875 2.4375 2.59835 2.4375 3.375C2.4375 4.15165 3.13705 4.78125 4 4.78125Z" fill="white"/>
</svg>
