<svg width="60" height="60" viewBox="0 0 60 60" fill="none" xmlns="http://www.w3.org/2000/svg">
<path d="M23 60V46C23 42.687 20.313 40 17 40H7C3.686 40 1 42.687 1 46V60" fill="#9690C4"/>
<path d="M13 38H11C8.243 38 6 35.757 6 33V30C6 27.243 8.243 25 11 25H13C15.757 25 18 27.243 18 30V33C18 35.757 15.757 38 13 38ZM11 27C9.346 27 8 28.346 8 30V33C8 34.654 9.346 36 11 36H13C14.654 36 16 34.654 16 33V30C16 28.346 14.654 27 13 27H11Z" fill="#8A8B88"/>
<path d="M7 49H5V60H7V49Z" fill="#8A8B88"/>
<path d="M19 49H17V60H19V49Z" fill="#8A8B88"/>
<path d="M23 53H18V55H23V53Z" fill="#8A8B88"/>
<path d="M6 53H1V55H6V53Z" fill="#8A8B88"/>
<path d="M15 50H9V52H15V50Z" fill="#8A8B88"/>
<path d="M15 54H9V56H15V54Z" fill="#8A8B88"/>
<path d="M13 40H11V45H13V40Z" fill="#8A8B88"/>
<path d="M5 30H3V34H5V30Z" fill="#8A8B88"/>
<path d="M17 29H7V31H17V29Z" fill="#8A8B88"/>
<path d="M59 60V46C59 42.687 56.313 40 53 40H43C39.686 40 37 42.687 37 46V60" fill="#9690C4"/>
<path d="M49 38H47C44.243 38 42 35.757 42 33V30C42 27.243 44.243 25 47 25H49C51.757 25 54 27.243 54 30V33C54 35.757 51.757 38 49 38ZM47 27C45.346 27 44 28.346 44 30V33C44 34.654 45.346 36 47 36H49C50.654 36 52 34.654 52 33V30C52 28.346 50.654 27 49 27H47Z" fill="#8A8B88"/>
<path d="M43 49H41V60H43V49Z" fill="#8A8B88"/>
<path d="M55 49H53V60H55V49Z" fill="#8A8B88"/>
<path d="M59 53H54V55H59V53Z" fill="#8A8B88"/>
<path d="M42 53H37V55H42V53Z" fill="#8A8B88"/>
<path d="M51 50H45V52H51V50Z" fill="#8A8B88"/>
<path d="M51 54H45V56H51V54Z" fill="#8A8B88"/>
<path d="M49 40H47V45H49V40Z" fill="#8A8B88"/>
<path d="M57 30H55V34H57V30Z" fill="#8A8B88"/>
<path d="M53 29H43V31H53V29Z" fill="#8A8B88"/>
<path d="M41 25V21C41 17.687 38.313 15 35 15H25C21.686 15 19 17.687 19 21V25" fill="#9690C4"/>
<path d="M31 13H29C26.243 13 24 10.757 24 8V5C24 2.243 26.243 0 29 0H31C33.757 0 36 2.243 36 5V8C36 10.757 33.757 13 31 13ZM29 2C27.346 2 26 3.346 26 5V8C26 9.654 27.346 11 29 11H31C32.654 11 34 9.654 34 8V5C34 3.346 32.654 2 31 2H29Z" fill="#8A8B88"/>
<path d="M25 22H23V25H25V22Z" fill="#8A8B88"/>
<path d="M37 22H35V25H37V22Z" fill="#8A8B88"/>
<path d="M31 15H29V20H31V15Z" fill="#8A8B88"/>
<path d="M39 5H37V9H39V5Z" fill="#8A8B88"/>
<path d="M23 5H21V9H23V5Z" fill="#8A8B88"/>
<path d="M35 4H25V6H35V4Z" fill="#8A8B88"/>
<path d="M31 31H29V33H31V31Z" fill="#8A8B88"/>
<path d="M31 35H29V37H31V35Z" fill="#8A8B88"/>
<path d="M27 35H25V37H27V35Z" fill="#8A8B88"/>
<path d="M23 35H21V37H23V35Z" fill="#8A8B88"/>
<path d="M35 35H33V37H35V35Z" fill="#8A8B88"/>
<path d="M39 35H37V37H39V35Z" fill="#8A8B88"/>
<path d="M31 39H29V41H31V39Z" fill="#8A8B88"/>
<path d="M31 43H29V45H31V43Z" fill="#8A8B88"/>
<path d="M31 47H29V49H31V47Z" fill="#8A8B88"/>
<path d="M31 51H29V53H31V51Z" fill="#8A8B88"/>
<path d="M31 55H29V57H31V55Z" fill="#8A8B88"/>
<path d="M31 27H29V29H31V27Z" fill="#8A8B88"/>
<path d="M31 23H29V25H31V23Z" fill="#8A8B88"/>
<path d="M59 20C58.714 20 58.435 19.877 58.241 19.651L54.254 15H43C42.447 15 42 14.552 42 14V3C42 2.448 42.447 2 43 2H59C59.553 2 60 2.448 60 3V19C60 19.419 59.739 19.792 59.347 19.938C59.233 19.98 59.116 20 59 20ZM44 13H54.714C55.006 13 55.283 13.127 55.473 13.349L58 16.297V4H44V13Z" fill="#8A8B88"/>
<path d="M1 20C0.884 20 0.767 19.98 0.653 19.938C0.261 19.792 0 19.419 0 19V3C0 2.448 0.447 2 1 2H17C17.553 2 18 2.448 18 3V14C18 14.552 17.553 15 17 15H5.746L1.759 19.651C1.565 19.877 1.286 20 1 20ZM2 4V16.297L4.527 13.349C4.717 13.127 4.994 13 5.286 13H16V4H2Z" fill="#8A8B88"/>
<path d="M56 6H46V8H56V6Z" fill="#8A8B88"/>
<path d="M56 9H46V11H56V9Z" fill="#8A8B88"/>
<path d="M14 6H4V8H14V6Z" fill="#8A8B88"/>
<path d="M14 9H4V11H14V9Z" fill="#8A8B88"/>
</svg>
