<svg width="60" height="55" viewBox="0 0 60 55" fill="none" xmlns="http://www.w3.org/2000/svg">
<path d="M43 49V44V30C43 27.238 40.762 25 38 25H22C19.238 25 17 27.238 17 30V44V49" fill="#9690C4"/>
<path d="M59 55H1C0.447 55 0 54.553 0 54V49C0 48.447 0.447 48 1 48H59C59.553 48 60 48.447 60 49V54C60 54.553 59.553 55 59 55ZM2 53H58V50H2V53Z" fill="#8A8B88"/>
<path d="M56 50H4C3.447 50 3 49.553 3 49V1C3 0.447 3.447 0 4 0H12C12.553 0 13 0.447 13 1V8H15V3C15 2.447 15.447 2 16 2H22C22.553 2 23 2.447 23 3V8H25V1C25 0.447 25.447 0 26 0H34C34.553 0 35 0.447 35 1V8H37V3C37 2.447 37.447 2 38 2H44C44.553 2 45 2.447 45 3V8H47V1C47 0.447 47.447 0 48 0H56C56.553 0 57 0.447 57 1V49C57 49.553 56.553 50 56 50ZM5 48H55V2H49V9C49 9.553 48.553 10 48 10H44C43.447 10 43 9.553 43 9V4H39V9C39 9.553 38.553 10 38 10H34C33.447 10 33 9.553 33 9V2H27V9C27 9.553 26.553 10 26 10H22C21.447 10 21 9.553 21 9V4H17V9C17 9.553 16.553 10 16 10H12C11.447 10 11 9.553 11 9V2H5V48Z" fill="#8A8B88"/>
<path d="M12 8H8V10H12V8Z" fill="#8A8B88"/>
<path d="M34 8H30V10H34V8Z" fill="#8A8B88"/>
<path d="M52 8H48V10H52V8Z" fill="#8A8B88"/>
<path d="M22 8H19V10H22V8Z" fill="#8A8B88"/>
<path d="M44 8H41V10H44V8Z" fill="#8A8B88"/>
<path d="M31 25H29V45H31V25Z" fill="#8A8B88"/>
<path d="M35 38H33V40H35V38Z" fill="#8A8B88"/>
<path d="M27 38H25V40H27V38Z" fill="#8A8B88"/>
<path d="M43 31H37V33H43V31Z" fill="#8A8B88"/>
<path d="M23 33H17V35H23V33Z" fill="#8A8B88"/>
<path d="M23 44H17V46H23V44Z" fill="#8A8B88"/>
<path d="M43 42H37V44H43V42Z" fill="#8A8B88"/>
<path d="M16 15H4V17H16V15Z" fill="#8A8B88"/>
<path d="M12 34H4V36H12V34Z" fill="#8A8B88"/>
<path d="M56 34H48V36H56V34Z" fill="#8A8B88"/>
<path d="M23 15H19V17H23V15Z" fill="#8A8B88"/>
<path d="M49 17H37V19H49V17Z" fill="#8A8B88"/>
<path d="M56 17H52V19H56V17Z" fill="#8A8B88"/>
<path d="M14 25H8V27H14V25Z" fill="#8A8B88"/>
<path d="M52 25H46V27H52V25Z" fill="#8A8B88"/>
<path d="M51 42H47V44H51V42Z" fill="#8A8B88"/>
<path d="M13 42H9V44H13V42Z" fill="#8A8B88"/>
</svg>
