<svg width="64" height="51" viewBox="0 0 64 51" fill="none" xmlns="http://www.w3.org/2000/svg">
<path d="M50.4615 51H1.23077C0.551385 51 0 50.6201 0 50.15V5.1C0 3.33625 1.54338 0 7.38462 0H56.6154C57.2948 0 57.8462 0.3808 57.8462 0.85C57.8462 1.3192 57.2948 1.7 56.6154 1.7C53.9003 1.7 51.6923 3.2249 51.6923 5.1V7.65H49.2308V5.1C49.2308 3.79525 49.9446 2.6027 51.1163 1.7H7.38462C2.51692 1.7 2.46154 4.96145 2.46154 5.1V49.3H49.2308V44.2H51.6923V50.15C51.6923 50.6201 51.1409 51 50.4615 51Z" fill="#8A8B88"/>
<path d="M62.7692 5.95H50.4615C49.7822 5.95 49.2308 5.5692 49.2308 5.1C49.2308 2.28735 52.5428 0 56.6154 0C60.688 0 64 2.28735 64 5.1C64 5.5692 63.4486 5.95 62.7692 5.95ZM51.8474 4.25H61.3822C60.8345 2.78545 58.9046 1.7 56.6154 1.7C54.3262 1.7 52.3963 2.78545 51.8474 4.25Z" fill="#8A8B88"/>
<path d="M16 5.10001H6.15384V6.80001H16V5.10001Z" fill="#8A8B88"/>
<path d="M23.3846 8.5H6.15384V10.2H23.3846V8.5Z" fill="#8A8B88"/>
<path d="M33.2308 13.6H6.15384V15.3H33.2308V13.6Z" fill="#8A8B88"/>
<path d="M33.2308 17.85H6.15384V19.55H33.2308V17.85Z" fill="#8A8B88"/>
<path d="M33.2308 22.1H6.15384V23.8H33.2308V22.1Z" fill="#8A8B88"/>
<path d="M35.6923 26.35H6.15384V28.05H35.6923V26.35Z" fill="#8A8B88"/>
<path d="M35.6923 30.6H6.15384V32.3H35.6923V30.6Z" fill="#8A8B88"/>
<path d="M41.8462 45.9C41.6542 45.9 41.4597 45.8685 41.2825 45.8056C40.8726 45.6603 40.6154 45.3687 40.6154 45.05V21.25H43.0769V43.3984L49.2308 40.3631V27.2H51.6923V40.8C51.6923 41.0745 51.5003 41.3321 51.1766 41.4919L42.5612 45.7419C42.3483 45.8464 42.0985 45.9 41.8462 45.9Z" fill="#8A8B88"/>
<path d="M59.0769 45.9C58.8246 45.9 58.5748 45.8464 58.3618 45.7419L49.7465 41.4919C49.4228 41.3321 49.2308 41.0745 49.2308 40.8V27.2H51.6923V40.3622L57.8462 43.3976V21.25H60.3077V45.05C60.3077 45.3687 60.0492 45.6603 59.6394 45.8056C59.4622 45.8685 59.2689 45.9 59.0769 45.9Z" fill="#8A8B88"/>
<path d="M50.5 29C56.8513 29 62 23.8513 62 17.5C62 11.1487 56.8513 6 50.5 6C44.1487 6 39 11.1487 39 17.5C39 23.8513 44.1487 29 50.5 29Z" fill="#9690C4"/>
<path d="M51.3846 16.78H48.9231V19.17H51.3846V16.78Z" fill="#8A8B88"/>
<path d="M56.3077 16.78H53.8462V19.17H56.3077V16.78Z" fill="#8A8B88"/>
<path d="M51.3846 21.56H48.9231V23.95H51.3846V21.56Z" fill="#8A8B88"/>
<path d="M46.4615 16.78H44V19.17H46.4615V16.78Z" fill="#8A8B88"/>
<path d="M51.3846 12H48.9231V14.39H51.3846V12Z" fill="#8A8B88"/>
<path d="M8.61538 36.55H6.15384V38.25H8.61538V36.55Z" fill="#8A8B88"/>
<path d="M8.61538 39.95H6.15384V41.65H8.61538V39.95Z" fill="#8A8B88"/>
<path d="M8.61538 43.35H6.15384V45.05H8.61538V43.35Z" fill="#8A8B88"/>
<path d="M13.5385 36.55H11.0769V38.25H13.5385V36.55Z" fill="#8A8B88"/>
<path d="M13.5385 39.95H11.0769V41.65H13.5385V39.95Z" fill="#8A8B88"/>
<path d="M13.5385 43.35H11.0769V45.05H13.5385V43.35Z" fill="#8A8B88"/>
<path d="M18.4615 36.55H16V38.25H18.4615V36.55Z" fill="#8A8B88"/>
<path d="M18.4615 39.95H16V41.65H18.4615V39.95Z" fill="#8A8B88"/>
<path d="M18.4615 43.35H16V45.05H18.4615V43.35Z" fill="#8A8B88"/>
<path d="M23.3846 36.55H20.9231V38.25H23.3846V36.55Z" fill="#8A8B88"/>
<path d="M23.3846 39.95H20.9231V41.65H23.3846V39.95Z" fill="#8A8B88"/>
<path d="M23.3846 43.35H20.9231V45.05H23.3846V43.35Z" fill="#8A8B88"/>
<path d="M28.3077 36.55H25.8462V38.25H28.3077V36.55Z" fill="#8A8B88"/>
<path d="M28.3077 39.95H25.8462V41.65H28.3077V39.95Z" fill="#8A8B88"/>
<path d="M28.3077 43.35H25.8462V45.05H28.3077V43.35Z" fill="#8A8B88"/>
<path d="M33.2308 36.55H30.7692V38.25H33.2308V36.55Z" fill="#8A8B88"/>
<path d="M33.2308 39.95H30.7692V41.65H33.2308V39.95Z" fill="#8A8B88"/>
<path d="M33.2308 43.35H30.7692V45.05H33.2308V43.35Z" fill="#8A8B88"/>
</svg>
