<svg width="52" height="53" viewBox="0 0 52 53" fill="none" xmlns="http://www.w3.org/2000/svg">
<path d="M37.2667 41.7049H14.7333V48.6557H37.2667V41.7049Z" fill="#9690C4"/>
<path d="M29.4667 39.0984H22.5333C22.0549 39.0984 21.6667 38.7091 21.6667 38.2295V21.7213H12.1333C9.26552 21.7213 6.93332 19.3832 6.93332 16.5082V0.868852C6.93332 0.389246 7.32159 0 7.79999 0H44.2C44.6792 0 45.0667 0.389246 45.0667 0.868852V16.5082H43.3333V1.7377H8.66665V16.5082C8.66665 18.4249 10.2215 19.9836 12.1333 19.9836H22.5333C23.0117 19.9836 23.4 20.3729 23.4 20.8525V37.3607H28.6V29.541H30.3333V38.2295C30.3333 38.7091 29.9459 39.0984 29.4667 39.0984Z" fill="#8A8B88"/>
<path d="M40.7333 49.5246H11.2667C10.7883 49.5246 10.4 49.1353 10.4 48.6557V38.2295C10.4 37.7499 10.7883 37.3607 11.2667 37.3607H40.7333C41.2126 37.3607 41.6 37.7499 41.6 38.2295V48.6557C41.6 49.1353 41.2126 49.5246 40.7333 49.5246ZM12.1333 47.7869H39.8667V39.0984H12.1333V47.7869Z" fill="#8A8B88"/>
<path d="M44.2 53H7.79999C7.32159 53 6.93332 52.6108 6.93332 52.1312V48.6557C6.93332 48.1761 7.32159 47.7869 7.79999 47.7869H44.2C44.6792 47.7869 45.0667 48.1761 45.0667 48.6557V52.1312C45.0667 52.6108 44.6792 53 44.2 53ZM8.66665 51.2623H43.3333V49.5246H8.66665V51.2623Z" fill="#8A8B88"/>
<path d="M26 19.9836H22.5333V21.7213H26V19.9836Z" fill="#8A8B88"/>
<path d="M44.2 15.6393V13.9016C49.2258 13.9016 50.167 9.22026 50.2667 8.62162V1.7377H44.2V0H51.1333C51.6126 0 52 0.389246 52 0.868852V8.68852C52 8.72936 51.9974 8.77107 51.9913 8.8119C51.6551 11.1726 49.5933 15.6393 44.2 15.6393Z" fill="#8A8B88"/>
<path d="M7.8 15.6393C2.40673 15.6393 0.344933 11.1726 0.00866667 8.8119C0.0026 8.77107 0 8.72936 0 8.68852V0.868852C0 0.389246 0.388267 0 0.866667 0H7.8V1.7377H1.73333V8.61902C1.83473 9.20984 2.8002 13.9016 7.8 13.9016V15.6393Z" fill="#8A8B88"/>
<path d="M13 4.34427H11.2667V11.2951H13V4.34427Z" fill="#8A8B88"/>
<path d="M13 12.1639H11.2667V13.9016H13V12.1639Z" fill="#8A8B88"/>
<path d="M19.9333 44.3115H18.2V46.0492H19.9333V44.3115Z" fill="#8A8B88"/>
<path d="M23.4 44.3115H21.6667V46.0492H23.4V44.3115Z" fill="#8A8B88"/>
<path d="M26.8667 44.3115H25.1333V46.0492H26.8667V44.3115Z" fill="#8A8B88"/>
<path d="M30.3333 44.3115H28.6V46.0492H30.3333V44.3115Z" fill="#8A8B88"/>
<path d="M33.8 44.3115H32.0667V46.0492H33.8V44.3115Z" fill="#8A8B88"/>
<path d="M45.9333 23.459H44.2V25.1967H45.9333V23.459Z" fill="#8A8B88"/>
<path d="M46.1457 18.9158H44.4123V20.6535H46.1457V18.9158Z" fill="#8A8B88"/>
<path d="M43.3333 28.6721H41.6V30.4098H43.3333V28.6721Z" fill="#8A8B88"/>
<path d="M34.879 30.2109H33.1457V31.9486H34.879V30.2109Z" fill="#8A8B88"/>
<path d="M39.8667 32.1476H38.1333V33.8853H39.8667V32.1476Z" fill="#8A8B88"/>
<path d="M41.6 8.68854H39.8667V10.4262H41.6V8.68854Z" fill="#8A8B88"/>
<path d="M36.6123 9.3584H34.879V11.0961H36.6123V9.3584Z" fill="#8A8B88"/>
<path d="M30.3333 10.4262H28.6V12.1639H30.3333V10.4262Z" fill="#8A8B88"/>
<path d="M27.7333 24.3279H26V26.0656H27.7333V24.3279Z" fill="#8A8B88"/>
<path d="M28.6 15.6393H26.8667V17.377H28.6V15.6393Z" fill="#8A8B88"/>
<path d="M38.1914 24.0255L36.9131 21.8056H39.4039L41.3357 25.1611C42.1798 23.9994 42.6773 22.5702 42.6773 21.0228C42.6773 17.1372 39.5347 13.9868 35.659 13.9868C31.7833 13.9868 28.6407 17.1372 28.6407 21.0228C28.6407 22.5693 29.1391 23.9994 29.9823 25.1611L35.659 15.3048L39.0468 21.1878H36.556L35.6295 19.5787L34.3469 21.8065H36.1998L37.4781 24.0264H33.0685L31.5241 26.7085C32.6837 27.5583 34.1129 28.0596 35.6599 28.0596C37.1878 28.0596 38.6013 27.5696 39.7531 26.7389L38.1914 24.0255Z" fill="#8A8B88"/>
</svg>
