<svg width="60" height="51" viewBox="0 0 60 51" fill="none" xmlns="http://www.w3.org/2000/svg">
<g clip-path="url(#clip0_879_1993)">
<path d="M13.376 44.235H5.51599V46.601H13.376V44.235Z" fill="#282D33"/>
<path d="M40.511 44.236H15.768V46.602H40.511V44.236Z" fill="#282D33"/>
<path d="M23.556 48.573H6.897V50.939H23.556V48.573Z" fill="#282D33"/>
<path d="M30.456 48.572H26.414V50.938H30.456V48.572Z" fill="#282D33"/>
<path d="M3.27099 44.235H0.18399V46.601H3.27099V44.235Z" fill="#282D33"/>
<path d="M8.576 37.302C13.3124 37.302 17.152 33.4624 17.152 28.726C17.152 23.9896 13.3124 20.15 8.576 20.15C3.83961 20.15 0 23.9896 0 28.726C0 33.4624 3.83961 37.302 8.576 37.302Z" fill="#ADD44C"/>
<path d="M9.16699 25.348H6.80099V42.544H9.16699V25.348Z" fill="#282D33"/>
<path d="M7.98401 34.178L11.702 30.461L7.98401 34.178Z" fill="white"/>
<path d="M10.8673 29.6231L7.1488 33.3405L8.82157 35.0137L12.54 31.2963L10.8673 29.6231Z" fill="#282D33"/>
<path d="M7.98398 32.32L4.26398 28.602L7.98398 32.32Z" fill="white"/>
<path d="M5.10013 27.766L3.42737 29.4392L7.14653 33.1573L8.8193 31.4841L5.10013 27.766Z" fill="#282D33"/>
<path d="M25.229 30.512C25.229 33.912 22.473 36.669 19.072 36.669C15.672 36.669 12.915 33.912 12.915 30.512V6.505C12.915 3.105 15.672 0.348999 19.072 0.348999C22.473 0.348999 25.229 3.105 25.229 6.505V30.512Z" fill="#B7BEC0"/>
<path d="M20.256 2.759H17.89V42.544H20.256V2.759Z" fill="#282D33"/>
<path d="M19.073 32.319L22.791 28.602L19.073 32.319Z" fill="white"/>
<path d="M21.9549 27.7647L18.2364 31.4821L19.9092 33.1553L23.6276 29.4379L21.9549 27.7647Z" fill="#282D33"/>
<path d="M19.073 32.32L15.353 28.602L19.073 32.32Z" fill="white"/>
<path d="M16.1887 27.7664L14.5159 29.4396L18.2351 33.1577L19.9078 31.4845L16.1887 27.7664Z" fill="#282D33"/>
<path d="M19.073 25.222L22.791 21.505L19.073 25.222Z" fill="white"/>
<path d="M21.9543 20.6671L18.2358 24.3845L19.9086 26.0577L23.6271 22.3403L21.9543 20.6671Z" fill="#282D33"/>
<path d="M19.073 25.223L15.353 21.505L19.073 25.223Z" fill="white"/>
<path d="M16.1891 20.6692L14.5163 22.3424L18.2355 26.0605L19.9082 24.3873L16.1891 20.6692Z" fill="#282D33"/>
<path d="M19.073 18.125L22.791 14.408L19.073 18.125Z" fill="white"/>
<path d="M21.9544 13.5702L18.236 17.2876L19.9087 18.9608L23.6272 15.2434L21.9544 13.5702Z" fill="#282D33"/>
<path d="M19.073 18.126L15.353 14.408L19.073 18.126Z" fill="white"/>
<path d="M16.1895 13.5719L14.5167 15.2451L18.2359 18.9633L19.9086 17.29L16.1895 13.5719Z" fill="#282D33"/>
<path d="M19.073 11.028L22.791 7.311L19.073 11.028Z" fill="white"/>
<path d="M21.9545 6.47318L18.236 10.1906L19.9088 11.8638L23.6272 8.14641L21.9545 6.47318Z" fill="#282D33"/>
<path d="M19.073 11.028L15.353 7.31L19.073 11.028Z" fill="white"/>
<path d="M16.19 6.47462L14.5172 8.14786L18.2364 11.866L19.9091 10.1927L16.19 6.47462Z" fill="#282D33"/>
<path d="M26.881 25.071V40.66H30.786V28.813H37.994V40.66H51.788V25.071L39.141 13L26.881 25.071Z" fill="white"/>
<path d="M52.971 41.842H36.812V29.996H31.969V41.842H25.698V25.071H28.064V39.477H29.603V27.63H39.177V39.477H50.605V25.071H52.971V41.842Z" fill="#282D33"/>
<path d="M33.04 18.47V16.002H29.603V22.1L33.04 18.47Z" fill="white"/>
<path d="M30.786 22.1H28.42V14.819H34.223V18.47H31.857V17.185H30.786V22.1Z" fill="#282D33"/>
<path d="M48.82 28.166H40.334V35.206H48.82V28.166Z" fill="#ADD44C"/>
<path d="M54.189 28.751L39.334 13.895L24.48 28.751L22.807 27.078L39.334 10.55L55.862 27.078L54.189 28.751Z" fill="#282D33"/>
<path d="M48.836 33.944H40.319V36.31H48.836V33.944Z" fill="#282D33"/>
<path d="M42.272 43.801C42.259 43.717 42.247 43.634 42.247 43.548C42.247 42.57 43.039 41.778 44.017 41.778C44.21 41.778 44.392 41.817 44.566 41.874C44.826 40.105 46.347 38.744 48.189 38.744C48.459 38.744 48.723 38.776 48.976 38.83C49.797 37.926 50.979 37.354 52.297 37.354C54.405 37.354 56.168 38.809 56.651 40.767C56.653 40.767 56.657 40.766 56.657 40.766C58.125 40.766 59.314 41.955 59.314 43.421C59.314 43.55 59.301 43.676 59.284 43.8H42.272V43.801Z" fill="#B7BEC0"/>
<path d="M52.339 4.928C52.339 7.65 50.133 9.856 47.41 9.856C44.688 9.856 42.482 7.65 42.482 4.928C42.482 2.206 44.688 0 47.41 0C50.133 0 52.339 2.206 52.339 4.928Z" fill="#B7BEC0"/>
</g>
<defs>
<clipPath id="clip0_879_1993">
<rect width="59.311" height="50.939" fill="white"/>
</clipPath>
</defs>
</svg>
