<svg width="60" height="51" viewBox="0 0 60 51" fill="none" xmlns="http://www.w3.org/2000/svg">
<path d="M28.7233 17.7462C29.178 20.0442 26.7622 22.1508 23.3294 22.4549C19.893 22.7589 16.7426 21.1443 16.2891 18.8455C15.8344 16.55 18.2503 14.4426 21.6855 14.1385C25.1182 13.8344 28.2699 15.4499 28.7233 17.7462Z" fill="#ADD44C"/>
<path d="M26.1488 35.8742L27.8089 26.0008C27.9663 25.0661 26.9595 24.2232 25.5629 24.118L20.0791 23.7062C18.68 23.6009 17.4209 24.2733 17.2635 25.2081L15.6033 35.0823L26.1488 35.8742Z" fill="#ADD44C"/>
<path d="M20.1366 48.0789L14.5403 46.5904L18.2516 40.4458L17.196 33.8744L22.9659 32.923L24.4962 40.7424L20.1366 48.0789Z" fill="#ADD44C"/>
<path d="M30.7532 38.3166H21.0485V40.2704H30.7532V38.3166Z" fill="#282D33"/>
<path d="M25.2756 42.4673H15.5709V44.4211H25.2756V42.4673Z" fill="#282D33"/>
<path d="M18.2766 38.3166H14.4641V40.2704H18.2766V38.3166Z" fill="#282D33"/>
<path d="M46.143 12.9206C46.143 15.2386 43.3349 17.1156 39.8722 17.1156C36.4057 17.1156 33.5988 15.2386 33.5988 12.9206C33.5988 10.6035 36.4057 8.72651 39.8722 8.72651C43.3349 8.72734 46.143 10.6035 46.143 12.9206Z" fill="white"/>
<path d="M39.8734 18.092C35.6088 18.092 32.1398 15.7724 32.1398 12.9206C32.1398 10.0697 35.61 7.75003 39.8734 7.75003C44.1356 7.75003 47.6045 10.0697 47.6045 12.9206C47.6045 15.7724 44.1356 18.092 39.8734 18.092ZM39.8734 9.70383C37.2202 9.70383 35.0604 11.1472 35.0604 12.9214C35.0604 14.6957 37.2189 16.1391 39.8734 16.1391C42.5254 16.1391 44.6827 14.6957 44.6827 12.9214C44.6827 11.1464 42.5254 9.70383 39.8734 9.70383Z" fill="#282D33"/>
<path d="M12.9139 17.9283C12.9139 20.3148 10.0221 22.2469 6.45819 22.2469C2.88932 22.2469 0 20.3148 0 17.9283C0 15.5435 2.88932 13.6097 6.45819 13.6097C10.0233 13.6106 12.9139 15.5435 12.9139 17.9283Z" fill="#ADD44C"/>
<path d="M29.9351 49.6493L25.588 47.0389L34.2247 41.2511L35.7999 32.6975L41.5973 33.1744L39.7985 42.9484L29.9351 49.6493Z" fill="white"/>
<path d="M29.9975 51L23.4656 47.0782L32.8356 40.7992L34.5282 31.6091L43.2249 32.3249L41.1875 43.3978L29.9975 51ZM27.7103 46.9997L29.8738 48.2994L38.4106 42.4999L39.9709 34.0248L37.0715 33.7859L35.615 41.7038L27.7103 46.9997Z" fill="#282D33"/>
<path d="M49.6544 49.4054L35.4126 32.4636V18.0411L40.9552 17.1799L47.4571 25.041H58.5385V28.9478H43.817L41.255 26.4527V31.4545L54.766 47.5142L49.6544 49.4054Z" fill="white"/>
<path d="M49.091 50.7294L33.9524 32.7192V17.2651L41.7009 16.0614L48.319 24.0645H60V29.9251H43.0488L42.7165 29.6018V31.1989L56.7609 47.8935L49.091 50.7294ZM36.8729 32.208L50.2165 48.0814L52.7723 47.1367L39.7947 31.7101V23.3044L44.5865 27.9713H57.0782V26.0175H46.5952L40.2119 18.2975L36.8729 18.8162V32.208Z" fill="#282D33"/>
<path d="M58.1737 0H55.2519V21.8133H58.1737V0Z" fill="#282D33"/>
<path d="M43.7383 5.27333L49.4958 3.0514L55.2519 0.828629V5.27333V9.71802L49.4958 7.49609L43.7383 5.27333Z" fill="#B7BEC0"/>
<path d="M9.85594 32.416H3.73627V47.6145H9.85594V32.416Z" fill="#ADD44C"/>
<path d="M12.042 35.6319V25.4018C12.042 24.4337 10.8678 23.6477 9.41997 23.6477H3.73626C2.28723 23.6477 1.11426 24.4337 1.11426 25.4018V35.6319H12.042Z" fill="#ADD44C"/>
</svg>
