<svg width="64" height="51" viewBox="0 0 64 51" fill="none" xmlns="http://www.w3.org/2000/svg">
<path d="M61.3468 12.609H2.66132V49.0542H61.3468V12.609Z" fill="white"/>
<path d="M64 5.63417H0V17.172H64V5.63417Z" fill="#ADD44C"/>
<path d="M13.6445 22.9586H9.02887V26.8081H13.6445V22.9586Z" fill="#B7BEC0"/>
<path d="M20.5673 22.9586H15.9529V26.8081H20.5673V22.9586Z" fill="#B7BEC0"/>
<path d="M27.4913 22.9586H22.8757V26.8081H27.4913V22.9586Z" fill="#282D33"/>
<path d="M34.4153 22.9586H29.7997V26.8081H34.4153V22.9586Z" fill="#282D33"/>
<path d="M41.3381 22.9586H36.7225V26.8081H41.3381V22.9586Z" fill="#282D33"/>
<path d="M48.2621 22.9586H43.6442V26.8081H48.2621V22.9586Z" fill="#282D33"/>
<path d="M55.185 22.9586H50.5705V26.8081H55.185V22.9586Z" fill="#282D33"/>
<path d="M13.6445 28.7338H9.02887V32.5832H13.6445V28.7338Z" fill="#282D33"/>
<path d="M20.5673 28.7338H15.9529V32.5832H20.5673V28.7338Z" fill="#282D33"/>
<path d="M27.4913 28.7338H22.8757V32.5832H27.4913V28.7338Z" fill="#282D33"/>
<path d="M34.4153 28.7338H29.7997V32.5832H34.4153V28.7338Z" fill="#282D33"/>
<path d="M41.3381 28.7338H36.7225V32.5832H41.3381V28.7338Z" fill="#ADD44C"/>
<path d="M48.2621 28.7338H43.6442V32.5832H48.2621V28.7338Z" fill="#ADD44C"/>
<path d="M55.185 28.7338H50.5705V32.5832H55.185V28.7338Z" fill="#282D33"/>
<path d="M13.6445 34.5118H9.02887V38.3622H13.6445V34.5118Z" fill="#282D33"/>
<path d="M20.5673 34.5118H15.9529V38.3622H20.5673V34.5118Z" fill="#282D33"/>
<path d="M27.4913 34.5118H22.8757V38.3622H27.4913V34.5118Z" fill="#ADD44C"/>
<path d="M34.4153 34.5118H29.7997V38.3622H34.4153V34.5118Z" fill="#282D33"/>
<path d="M41.3381 34.5118H36.7225V38.3622H41.3381V34.5118Z" fill="#282D33"/>
<path d="M48.2621 34.5118H43.6442V38.3622H48.2621V34.5118Z" fill="#282D33"/>
<path d="M55.185 34.5118H50.5705V38.3622H55.185V34.5118Z" fill="#282D33"/>
<path d="M13.6445 40.285H9.02887V44.1345H13.6445V40.285Z" fill="#282D33"/>
<path d="M20.5673 40.285H15.9529V44.1345H20.5673V40.285Z" fill="#282D33"/>
<path d="M27.4913 40.285H22.8757V44.1345H27.4913V40.285Z" fill="#282D33"/>
<path d="M34.4153 40.285H29.7997V44.1345H34.4153V40.285Z" fill="#282D33"/>
<path d="M41.3381 40.285H36.7225V44.1345H41.3381V40.285Z" fill="#282D33"/>
<path d="M48.2621 40.285H43.6442V44.1345H48.2621V40.285Z" fill="#282D33"/>
<path d="M55.185 40.285H50.5705V44.1345H55.185V40.285Z" fill="#B7BEC0"/>
<path d="M64 51H0V17.2382H2.60842V48.824H61.3916V17.2382H64V51Z" fill="#282D33"/>
<path d="M14.5561 1.08751H9.17719V11.1504H14.5561V1.08751Z" fill="white"/>
<path d="M15.8609 12.2388H7.87354V0H15.8609V12.2388ZM10.4808 10.0629H13.2525V2.17599H10.4808V10.0629Z" fill="#282D33"/>
<path d="M54.8205 1.08751H49.4416V11.1504H54.8205V1.08751Z" fill="white"/>
<path d="M56.1253 12.2388H48.1379V0H56.1253V12.2388ZM50.7464 10.0629H53.518V2.17599H50.7464V10.0629Z" fill="#282D33"/>
</svg>
