<svg width="63" height="50" viewBox="0 0 63 50" fill="none" xmlns="http://www.w3.org/2000/svg">
<g clip-path="url(#clip0_879_1899)">
<path d="M60.137 9.50101H2.379V46.982H60.137V9.50101Z" fill="white"/>
<path d="M57.451 11.828H4.91599V44.547H57.451V11.828Z" fill="#ADD44C"/>
<path d="M15.669 7.98801H9.21701V48.388H15.669V7.98801Z" fill="#B7BEC0"/>
<path d="M52.536 7.98801H47.313V48.388H52.536V7.98801Z" fill="#B7BEC0"/>
<path d="M53.613 8.302H51.155V22.352H53.613V8.302Z" fill="#282D33"/>
<path d="M48.673 8.302H46.215V22.352H48.673V8.302Z" fill="#282D33"/>
<path d="M53.613 33.749H51.155V47.799H53.613V33.749Z" fill="#282D33"/>
<path d="M48.673 33.749H46.215V47.799H48.673V33.749Z" fill="#282D33"/>
<path d="M52.873 35.254H46.955C45.727 35.254 44.729 34.256 44.729 33.029V23.649C44.729 22.422 45.727 21.424 46.955 21.424H52.873C54.099 21.424 55.097 22.422 55.097 23.649V33.029C55.097 34.256 54.099 35.254 52.873 35.254ZM47.187 32.797H52.639V23.883H47.187V32.797Z" fill="#282D33"/>
<path d="M51.143 30.073H48.685V33.406H51.143V30.073Z" fill="#282D33"/>
<path d="M62.366 49.463H0V6.91299H62.366V49.463ZM2.458 47.005H59.908V9.36999H2.458V47.005Z" fill="#282D33"/>
<path d="M40.195 5.223H37.738V2.458H24.629V5.223H22.171V0H40.195V5.223Z" fill="#282D33"/>
<path d="M16.152 8.302H13.694V22.352H16.152V8.302Z" fill="#282D33"/>
<path d="M11.212 8.302H8.754V22.352H11.212V8.302Z" fill="#282D33"/>
<path d="M16.152 33.749H13.694V47.799H16.152V33.749Z" fill="#282D33"/>
<path d="M11.212 33.749H8.754V47.799H11.212V33.749Z" fill="#282D33"/>
<path d="M15.412 35.254H9.49501C8.26701 35.254 7.26901 34.256 7.26901 33.029V23.649C7.26901 22.422 8.26701 21.424 9.49501 21.424H15.413C16.639 21.424 17.637 22.422 17.637 23.649V33.029C17.636 34.256 16.638 35.254 15.412 35.254ZM9.72601 32.797H15.178V23.883H9.72601V32.797Z" fill="#282D33"/>
<path d="M13.682 30.073H11.224V33.406H13.682V30.073Z" fill="#282D33"/>
<path d="M21.4936 19.9421L19.7251 30.8595L35.0913 33.3486L36.8598 22.4313L21.4936 19.9421Z" fill="white"/>
<path d="M24.5444 24.1709L23.9545 27.8103L32.0418 29.1212L32.6317 25.4818L24.5444 24.1709Z" fill="#B7BEC0"/>
<path d="M43.347 18.247C43.347 19.491 42.339 20.5 41.094 20.5C39.849 20.5 38.841 19.491 38.841 18.247C38.841 17.002 39.849 15.994 41.094 15.994C42.339 15.993 43.347 17.002 43.347 18.247Z" fill="white"/>
<path d="M41.3332 34.5961L28.8653 37.0101L29.7998 41.8367L42.2677 39.4226L41.3332 34.5961Z" fill="white"/>
<path d="M38.3455 36.4278L31.9108 37.6724L32.3776 40.0856L38.8123 38.841L38.3455 36.4278Z" fill="#282D33"/>
<path d="M21.432 38.523H18.564V41.391H21.432V38.523Z" fill="white"/>
</g>
<defs>
<clipPath id="clip0_879_1899">
<rect width="62.366" height="49.463" fill="white"/>
</clipPath>
</defs>
</svg>
